<svg version="1.1" id="Layer_1" xmlns="http://www.w3.org/2000/svg" xmlns:xlink="http://www.w3.org/1999/xlink" x="0px" y="0px"
	 width="100%" viewBox="0 0 73 73" enable-background="new 0 0 73 73" xml:space="preserve">
<path fill="#000000" opacity="1.000000" stroke="none" 
	d="
M7.000000,74.000000 
	C5.003758,74.000000 3.007517,74.000000 1.008457,74.000000 
	C1.005638,49.716156 1.005638,25.432308 1.005638,1.074231 
	C25.237932,1.074231 49.476135,1.074231 73.857178,1.074231 
	C73.857178,25.332714 73.857178,49.666248 73.857178,74.000000 
	C69.598602,74.000000 65.273430,74.000000 60.472488,73.622734 
	C60.001602,72.490936 60.006481,71.736412 60.227112,70.720558 
	C62.830887,67.984734 62.579044,66.125061 59.105988,64.579323 
	C58.636501,61.425533 58.232506,58.692791 57.892521,55.544746 
	C58.300968,49.589520 54.174000,52.849613 51.689835,52.108727 
	C49.856899,52.425163 48.400066,52.769230 46.658878,52.963318 
	C45.930691,50.586094 45.486866,48.358856 45.355206,46.072502 
	C46.129795,45.677727 46.592216,45.342068 47.311005,44.926838 
	C47.718536,44.188717 47.869705,43.530167 48.029160,42.550720 
	C49.714981,38.491997 51.392513,34.754173 53.421852,31.005489 
	C55.194813,30.361555 56.615967,29.728479 58.406258,29.058014 
	C60.532738,28.173420 62.334053,27.405802 64.039047,26.463833 
	C68.840897,23.810921 68.903320,23.185457 64.993637,18.561123 
	C64.001259,14.806102 61.771011,16.979715 60.009884,16.655046 
	C59.718922,13.502497 61.300205,9.611831 55.935318,9.697624 
	C55.469822,8.589870 55.159760,7.777232 54.765846,6.636642 
	C53.792931,6.258171 52.903870,6.207653 51.561005,6.090628 
	C47.738689,6.020278 44.370178,6.016436 40.588833,5.938426 
	C38.780758,5.915462 37.385517,5.966665 35.632683,5.887152 
	C34.526859,5.816933 33.778637,5.877431 32.651871,5.899595 
	C31.520653,5.920162 30.767977,5.979064 29.643330,5.959978 
	C28.516993,5.920356 27.762630,5.958723 26.595531,5.908976 
	C24.789171,5.907592 23.395544,5.994323 21.759102,6.060894 
	C21.516285,6.040736 21.036190,6.124252 20.696201,6.060210 
	C19.899076,6.037643 19.441938,6.079119 18.616179,6.070786 
	C17.507641,6.066749 16.767727,6.112522 15.611696,6.088379 
	C13.789580,6.047471 12.383579,6.076477 10.544723,6.061905 
	C9.556284,7.778371 9.000702,9.538415 8.380451,11.436524 
	C8.315783,11.574590 8.382369,11.872149 8.269572,11.888205 
	C8.156775,11.904261 7.943740,11.985128 7.716647,11.816591 
	C7.214796,11.479738 6.940038,11.311423 6.665280,11.143108 
	C5.136495,13.881912 5.946421,23.773726 7.936357,26.391325 
	C8.371100,28.502089 8.751808,30.228657 9.077324,32.319538 
	C8.972359,33.417812 8.922586,34.151772 8.689795,34.936493 
	C8.506777,34.987259 8.133738,35.058891 7.887670,34.896584 
	C7.094959,35.203438 6.086740,35.660034 6.073570,36.143723 
	C5.951189,40.638077 5.887409,45.140518 6.023846,49.634014 
	C6.270527,57.758400 6.666415,65.878250 7.000000,74.000000 
z"/>
<path fill="#121112" opacity="1.000000" stroke="none" 
	d="
M32.000000,74.000000 
	C30.933331,74.000000 29.866661,74.000000 28.346569,73.726715 
	C27.580776,73.166611 27.268406,72.879784 26.956034,72.592957 
	C26.637354,73.061966 26.318676,73.530983 26.000000,74.000000 
	C21.643101,74.000000 17.286201,74.000000 12.409634,73.696152 
	C11.260825,72.595970 10.631683,71.799644 10.382225,70.836197 
	C15.504177,70.158943 20.246443,69.648811 25.204645,69.051895 
	C25.420580,68.965126 25.867586,68.835442 26.157040,68.889915 
	C26.635496,68.997635 26.824499,69.050873 27.313614,69.337494 
	C29.419037,69.737305 31.224348,69.903748 32.923397,70.305359 
	C32.544758,71.693687 32.272377,72.846840 32.000000,74.000000 
z"/>
<path fill="#0A0A09" opacity="1.000000" stroke="none" 
	d="
M10.002541,71.003311 
	C10.631683,71.799644 11.260825,72.595970 11.944983,73.696152 
	C10.611111,74.000000 9.222222,74.000000 7.416667,74.000000 
	C6.666415,65.878250 6.270527,57.758400 6.023846,49.634014 
	C5.887409,45.140518 5.951189,40.638077 6.073570,36.143723 
	C6.086740,35.660034 7.094959,35.203438 7.848312,35.253593 
	C8.076369,36.491077 8.097715,37.209236 7.881638,38.138844 
	C7.807153,39.260529 7.970091,40.170769 8.102932,41.501106 
	C8.101614,43.604382 8.130392,45.287563 8.111776,47.338570 
	C8.073278,48.447350 8.082173,49.188301 7.835203,50.210087 
	C7.676883,52.645443 7.774427,54.799969 7.937192,57.401768 
	C8.046447,60.549564 8.090480,63.250088 7.886994,66.176750 
	C8.427164,67.936363 9.214852,69.469841 10.002541,71.003311 
z"/>
<path fill="#1A191A" opacity="1.000000" stroke="none" 
	d="
M32.454109,74.000000 
	C32.272377,72.846840 32.544758,71.693687 33.377045,70.289764 
	C41.286602,70.692436 48.636250,71.345886 55.642090,72.011055 
	C54.532196,72.681854 53.766098,73.340927 53.000000,74.000000 
	C52.555553,74.000000 52.111111,74.000000 51.219181,73.631844 
	C47.693607,71.672234 44.654636,70.546814 42.000000,74.000000 
	C38.969406,74.000000 35.938812,74.000000 32.454109,74.000000 
z"/>
<path fill="#0A0A09" opacity="1.000000" stroke="none" 
	d="
M42.449982,74.000000 
	C44.654636,70.546814 47.693607,71.672234 50.885849,73.631844 
	C48.299988,74.000000 45.599972,74.000000 42.449982,74.000000 
z"/>
<path fill="#0A0A09" opacity="1.000000" stroke="none" 
	d="
M53.437500,74.000000 
	C53.766098,73.340927 54.532196,72.681854 55.986382,71.963837 
	C57.786770,71.597221 58.899063,71.289551 60.011360,70.981880 
	C60.006481,71.736412 60.001602,72.490936 59.998360,73.622734 
	C57.958332,74.000000 55.916668,74.000000 53.437500,74.000000 
z"/>
<path fill="#0A0A09" opacity="1.000000" stroke="none" 
	d="
M26.333332,74.000000 
	C26.318676,73.530983 26.637354,73.061966 26.956034,72.592957 
	C27.268406,72.879784 27.580776,73.166611 27.946575,73.726715 
	C27.555555,74.000000 27.111111,74.000000 26.333332,74.000000 
z"/>
<path fill="#2F9091" opacity="1.000000" stroke="none" 
	d="
M53.070045,31.016346 
	C51.392513,34.754173 49.714981,38.491997 47.693596,42.583420 
	C46.900848,42.908688 46.451954,42.880360 45.998672,42.498032 
	C45.641685,41.118591 45.289093,40.093151 44.936497,39.067715 
	C44.496197,39.176422 44.055893,39.285130 43.615589,39.393837 
	C43.740276,40.545830 43.864960,41.697819 43.735779,42.916607 
	C43.314110,43.033073 43.146301,43.082741 42.628639,43.096390 
	C40.712395,42.992554 39.146004,42.924732 37.531017,42.687271 
	C37.482426,42.517632 37.224731,42.275127 37.339451,41.902905 
	C37.520386,41.017189 37.586597,40.503696 37.878708,39.859261 
	C38.354412,39.486862 38.604218,39.245403 39.229660,38.952820 
	C40.681992,37.898472 41.758682,36.895252 42.835373,35.892029 
	C41.888279,35.261299 40.941189,34.630573 39.972641,33.625755 
	C39.921402,32.503941 39.891621,31.756210 39.989052,30.747566 
	C40.404423,29.993013 40.692577,29.499374 41.339050,29.020287 
	C43.178577,29.670706 44.659794,30.306574 46.419434,30.936340 
	C47.171455,30.683737 47.645054,30.437231 48.343361,30.106228 
	C48.568077,30.021732 48.989109,29.790913 49.223331,29.812777 
	C49.457554,29.834641 49.926575,29.797592 50.122681,30.049873 
	C50.905834,30.521355 51.492882,30.740559 52.327232,30.977894 
	C52.574532,30.996029 53.070042,31.016344 53.070045,31.016346 
z"/>
<path fill="#6651D4" opacity="1.000000" stroke="none" 
	d="
M37.579609,42.856911 
	C39.146004,42.924732 40.712395,42.992554 42.699627,43.392570 
	C43.750507,44.162334 44.380554,44.599907 45.012787,45.311188 
	C45.024330,45.767139 45.033684,45.949379 45.043041,46.131615 
	C45.486866,48.358856 45.930691,50.586094 46.693939,53.305546 
	C47.094391,54.481422 47.175423,55.165089 46.909763,56.002285 
	C45.010796,56.771759 43.458515,57.387703 41.624996,57.794632 
	C39.896309,52.748512 38.448864,47.911407 37.149166,43.028465 
	C37.296913,42.982635 37.579609,42.856911 37.579609,42.856911 
z"/>
<path fill="#000001" opacity="1.000000" stroke="none" 
	d="
M60.227112,70.720558 
	C58.899063,71.289551 57.786770,71.597221 56.330185,71.952118 
	C48.636250,71.345886 41.286602,70.692436 33.483307,70.054596 
	C31.224348,69.903748 29.419037,69.737305 27.631754,69.297981 
	C28.073366,68.976601 28.496952,68.928101 29.171513,68.868866 
	C30.105822,68.489120 30.789152,68.120110 31.722103,68.049515 
	C34.995338,68.258408 38.018948,68.168877 41.452263,68.050232 
	C43.231953,68.045296 44.601933,68.069473 46.265579,68.386284 
	C49.513554,68.785683 52.505650,69.204491 55.404499,68.853394 
	C56.652328,68.702255 57.706898,66.955460 58.932648,65.701263 
	C59.016026,65.468933 59.171478,65.000366 59.171478,65.000366 
	C62.579044,66.125061 62.830887,67.984734 60.227112,70.720558 
z"/>
<path fill="#6F462F" opacity="1.000000" stroke="none" 
	d="
M8.872814,34.885731 
	C8.922586,34.151772 8.972359,33.417812 9.469086,32.338039 
	C14.092818,32.212395 15.692682,29.314697 17.368271,26.070297 
	C18.144482,25.994734 18.588911,25.956057 19.402676,25.956097 
	C20.513975,26.025839 21.255939,26.056862 22.000273,26.456581 
	C21.998228,27.564007 21.993818,28.302736 21.613283,29.107708 
	C20.870653,31.105577 20.504150,33.037201 19.819992,35.002567 
	C19.290236,35.055408 19.078135,35.074505 18.661119,35.081059 
	C18.456207,35.068512 18.046953,35.101643 17.764599,35.081257 
	C17.294065,35.075256 17.105886,35.089638 16.661991,35.091812 
	C16.238098,35.108688 16.069923,35.137779 15.504366,35.114510 
	C13.771159,35.083443 12.435332,35.104736 10.729648,35.077278 
	C9.864131,34.980930 9.368472,34.933331 8.872814,34.885731 
z"/>
<path fill="#613D36" opacity="1.000000" stroke="none" 
	d="
M60.013355,17.092445 
	C61.771011,16.979715 64.001259,14.806102 64.915543,18.897926 
	C61.562195,22.063013 58.242531,24.554478 54.633095,27.085201 
	C54.149940,27.149038 53.956551,27.173613 53.799553,27.026398 
	C53.835945,26.854609 53.899502,26.515480 53.971550,26.177006 
	C54.090824,25.612715 54.138058,25.386896 54.376053,24.897137 
	C54.699959,23.789040 54.833099,22.944881 54.972061,21.786018 
	C54.971642,21.053013 54.965397,20.634714 55.245399,20.137966 
	C55.724079,20.013475 55.916515,19.967432 56.385925,19.790030 
	C57.779713,18.803263 58.896534,17.947855 60.013355,17.092445 
z"/>
<path fill="#8E6246" opacity="1.000000" stroke="none" 
	d="
M17.036488,26.107187 
	C15.692682,29.314697 14.092818,32.212395 9.524279,31.973724 
	C8.751808,30.228657 8.371100,28.502089 8.004032,26.074533 
	C8.059281,24.943626 8.100891,24.513708 8.398357,23.919449 
	C9.071476,22.847694 9.488739,21.940279 10.186390,21.021204 
	C10.653331,21.009609 10.839883,21.009674 11.071667,21.352196 
	C12.067753,22.204727 13.018609,22.714808 13.993956,23.573647 
	C15.003480,24.580839 15.988514,25.239271 16.989620,25.949974 
	C17.005692,26.002243 17.036488,26.107187 17.036488,26.107187 
z"/>
<path fill="#624640" opacity="1.000000" stroke="none" 
	d="
M54.922867,27.045940 
	C58.242531,24.554478 61.562195,22.063013 64.959946,19.234745 
	C68.903320,23.185457 68.840897,23.810921 64.039047,26.463833 
	C62.334053,27.405802 60.532738,28.173420 58.087967,28.994747 
	C56.574654,28.327892 55.748760,27.686918 54.922867,27.045940 
z"/>
<path fill="#956749" opacity="1.000000" stroke="none" 
	d="
M59.105988,64.579323 
	C59.171478,65.000366 59.016026,65.468933 58.559547,65.715408 
	C56.070137,64.984871 54.037205,64.007851 51.986328,62.748978 
	C51.951557,62.279778 51.934734,62.092422 51.949532,61.577744 
	C52.022404,60.813972 52.063652,60.377529 52.468086,59.930473 
	C53.558914,58.609470 54.286552,57.299091 55.352058,55.991966 
	C56.141235,55.995071 56.592545,55.994923 57.239922,55.983994 
	C57.435993,55.973217 57.828510,55.960045 57.828510,55.960045 
	C58.232506,58.692791 58.636501,61.425533 59.105988,64.579323 
z"/>
<path fill="#090A07" opacity="1.000000" stroke="none" 
	d="
M60.009884,16.655045 
	C58.896534,17.947855 57.779713,18.803263 56.364380,19.376530 
	C55.975574,17.706093 55.885288,16.317799 55.862938,14.571844 
	C55.892338,13.489622 55.853809,12.765060 55.871117,11.700222 
	C55.981556,10.904210 56.036156,10.448475 56.090759,9.992740 
	C61.300205,9.611831 59.718922,13.502497 60.009884,16.655045 
z"/>
<path fill="#0A0A09" opacity="1.000000" stroke="none" 
	d="
M8.142500,24.083790 
	C8.100891,24.513708 8.059281,24.943626 7.949997,25.690336 
	C5.946421,23.773726 5.136495,13.881912 6.665280,11.143108 
	C6.940038,11.311423 7.214796,11.479738 7.794941,12.225917 
	C8.158141,14.189808 8.215955,15.575835 8.199662,17.328323 
	C8.132574,18.439997 8.139592,19.185207 7.893054,20.165558 
	C7.807166,21.628397 7.974833,22.856092 8.142500,24.083790 
z"/>
<path fill="#754D37" opacity="1.000000" stroke="none" 
	d="
M47.256454,55.848755 
	C47.175423,55.165089 47.094391,54.481422 46.978302,53.455528 
	C48.400066,52.769230 49.856899,52.425163 51.652397,52.422031 
	C51.982647,53.183174 51.974232,53.603382 51.970184,54.364830 
	C52.014107,55.159595 52.053661,55.613129 52.045731,56.307892 
	C51.998241,56.549122 51.864479,57.022305 51.510262,57.013641 
	C50.449322,57.007713 49.742599,57.010448 48.851532,56.813988 
	C48.196945,56.359444 47.726700,56.104099 47.256454,55.848755 
z"/>
<path fill="#6C9F32" opacity="1.000000" stroke="none" 
	d="
M55.935318,9.697624 
	C56.036156,10.448475 55.981556,10.904210 55.677673,11.687773 
	C55.428391,12.015599 55.040363,12.004770 54.667870,12.001575 
	C53.554451,12.017202 52.813522,12.036025 52.056973,11.671787 
	C52.027512,10.521799 52.013680,9.754869 51.996727,8.672314 
	C51.988190,7.937236 51.982769,7.517785 51.984390,7.068159 
	C51.991432,7.037984 52.002644,6.977038 52.358604,6.987391 
	C53.426273,6.986694 54.137989,6.975644 54.849701,6.964593 
	C55.159760,7.777232 55.469822,8.589870 55.935318,9.697624 
z"/>
<path fill="#75B03C" opacity="1.000000" stroke="none" 
	d="
M41.001671,6.012593 
	C44.370178,6.016436 47.738689,6.020278 51.556362,6.295569 
	C52.005527,6.567018 52.002644,6.977038 52.002644,6.977038 
	C52.002644,6.977038 51.991432,7.037984 51.556080,7.038977 
	C48.740501,7.690164 46.360271,8.340357 43.610649,8.993589 
	C42.501030,8.989045 41.760803,8.981461 41.014633,8.646009 
	C41.003349,7.881793 40.998013,7.445441 40.994507,6.759961 
	C40.996338,6.510833 41.001671,6.012593 41.001671,6.012593 
z"/>
<path fill="#2E6163" opacity="1.000000" stroke="none" 
	d="
M54.633095,27.085203 
	C55.748760,27.686918 56.574654,28.327892 57.718834,29.032135 
	C56.615967,29.728479 55.194813,30.361555 53.421848,31.005489 
	C53.070042,31.016344 52.574532,30.996029 52.314056,30.635620 
	C52.069595,29.818163 52.085613,29.361116 52.300720,28.766460 
	C52.920925,28.151962 53.342041,27.675076 53.763161,27.198189 
	C53.956551,27.173613 54.149940,27.149038 54.633095,27.085203 
z"/>
<path fill="#61922B" opacity="1.000000" stroke="none" 
	d="
M8.273767,16.961863 
	C8.215955,15.575835 8.158141,14.189808 8.022035,12.394455 
	C7.943740,11.985128 8.156775,11.904261 8.706675,11.916417 
	C9.837779,11.952319 10.418983,11.976065 11.000101,12.374882 
	C10.999943,13.498906 10.999871,14.247860 10.995770,15.329964 
	C10.992744,16.107239 10.993752,16.551365 10.653858,17.000389 
	C9.633229,16.990816 8.953498,16.976339 8.273767,16.961863 
z"/>
<path fill="#5B932D" opacity="1.000000" stroke="none" 
	d="
M18.984800,6.120595 
	C19.441938,6.079119 19.899076,6.037643 20.819843,6.243047 
	C21.484896,6.712483 21.725351,6.878512 22.380013,6.993720 
	C23.505606,7.002199 24.256027,7.004972 25.000956,7.340126 
	C24.991692,8.116990 24.987923,8.561473 24.740444,9.004496 
	C24.496735,9.003036 24.009321,8.999047 23.591156,9.000227 
	C21.781830,9.001722 20.390671,9.002039 18.999846,8.669888 
	C18.999952,7.895428 18.999723,7.453436 19.000103,6.788661 
	C19.000713,6.565878 18.984800,6.120595 18.984800,6.120595 
z"/>
<path fill="#B2815D" opacity="1.000000" stroke="none" 
	d="
M51.965813,54.023590 
	C51.974232,53.603382 51.982647,53.183174 52.028503,52.449661 
	C54.174000,52.849613 58.300968,49.589520 57.892521,55.544746 
	C57.828510,55.960045 57.435993,55.973217 57.177269,55.662109 
	C56.272991,54.880516 55.627441,54.410030 54.767639,53.803551 
	C53.690865,53.786232 52.828339,53.904911 51.965813,54.023590 
z"/>
<path fill="#77AE41" opacity="1.000000" stroke="none" 
	d="
M33.030411,5.937929 
	C33.778637,5.877431 34.526859,5.816933 35.635254,6.134632 
	C35.995422,6.512829 36.001957,7.007724 35.992485,7.339745 
	C35.990849,8.114721 35.998692,8.557678 36.003372,9.000257 
	C36.000206,8.999880 35.999203,8.996993 35.739754,8.999661 
	C35.307842,8.988698 35.135380,8.975066 34.768929,8.748571 
	C33.740040,8.670964 32.905136,8.806221 31.727482,8.965641 
	C30.926994,8.993380 30.469250,8.996955 30.012407,8.667635 
	C30.000240,7.891152 29.987173,7.447562 30.027615,7.001742 
	C30.081125,6.999512 30.186968,6.983065 30.507393,6.979526 
	C31.562016,6.629968 32.296211,6.283948 33.030411,5.937929 
z"/>
<path fill="#4C3590" opacity="1.000000" stroke="none" 
	d="
M45.010597,45.037476 
	C44.380554,44.599907 43.750507,44.162334 43.049477,43.428585 
	C43.146301,43.082741 43.314110,43.033073 44.070755,42.955406 
	C45.107410,42.902279 45.555237,42.877155 46.003059,42.852032 
	C46.451954,42.880360 46.900848,42.908688 47.685307,42.904312 
	C47.869705,43.530167 47.718536,44.188717 46.969795,44.922340 
	C45.918343,45.010765 45.464470,45.024120 45.010597,45.037476 
z"/>
<path fill="#A47252" opacity="1.000000" stroke="none" 
	d="
M8.689795,34.936493 
	C9.368472,34.933331 9.864131,34.980930 10.713585,35.284462 
	C11.067381,35.540394 11.092320,35.955593 11.080030,36.231682 
	C11.074171,36.691895 11.080603,36.876022 11.072989,37.271324 
	C11.058943,37.482498 11.106835,37.903065 10.790909,37.952713 
	C10.264334,38.035263 10.053684,38.068161 9.555704,38.071373 
	C8.885269,38.003593 8.502165,37.965496 8.119061,37.927399 
	C8.097715,37.209236 8.076369,36.491077 8.094381,35.415901 
	C8.133738,35.058891 8.506777,34.987259 8.689795,34.936493 
z"/>
<path fill="#74AC36" opacity="1.000000" stroke="none" 
	d="
M8.445120,11.298459 
	C9.000702,9.538415 9.556284,7.778371 10.568425,6.295331 
	C11.024983,6.572336 11.060084,7.041863 11.031846,7.367218 
	C10.996373,8.130289 10.989138,8.568007 10.721127,9.221733 
	C9.788606,10.057981 9.116862,10.678221 8.445120,11.298459 
z"/>
<path fill="#539320" opacity="1.000000" stroke="none" 
	d="
M11.060084,7.041863 
	C11.060084,7.041863 11.024983,6.572336 11.001281,6.338909 
	C12.383579,6.076477 13.789580,6.047471 15.603286,6.296603 
	C16.010990,6.574742 16.009127,6.993604 15.669725,6.996859 
	C14.878575,7.006704 14.426826,7.013294 13.609772,7.012909 
	C12.516339,7.017910 11.788212,7.029887 11.060084,7.041863 
z"/>
<path fill="#6FA931" opacity="1.000000" stroke="none" 
	d="
M36.001957,7.007724 
	C36.001957,7.007724 35.995422,6.512829 35.992851,6.265348 
	C37.385517,5.966665 38.780758,5.915462 40.588833,5.938426 
	C41.001671,6.012593 40.996338,6.510833 40.617447,6.755508 
	C39.482204,7.011392 38.725853,7.022600 37.642021,7.011134 
	C36.877014,6.994881 36.439484,7.001302 36.001957,7.007724 
z"/>
<path fill="#6DAF35" opacity="1.000000" stroke="none" 
	d="
M25.006451,7.007745 
	C24.256027,7.004972 23.505606,7.002199 22.378155,6.767045 
	C22.001125,6.534665 22.001919,6.081053 22.001919,6.081053 
	C23.395544,5.994323 24.789171,5.907592 26.587578,6.153207 
	C26.992357,6.485551 26.984541,6.974217 26.655581,6.982621 
	C25.886564,6.996597 25.446507,7.002171 25.006451,7.007745 
z"/>
<path fill="#6A9F34" opacity="1.000000" stroke="none" 
	d="
M8.380451,11.436524 
	C9.116862,10.678221 9.788606,10.057981 10.730915,9.212818 
	C11.001482,8.987894 11.021687,8.976290 11.012727,9.354887 
	C11.001907,10.489594 11.000049,11.245704 10.999094,12.000908 
	C10.999998,12.000002 11.000189,11.999811 11.000189,11.999811 
	C10.418983,11.976065 9.837779,11.952319 8.819471,11.900361 
	C8.382369,11.872149 8.315783,11.574590 8.380451,11.436524 
z"/>
<path fill="#81C13F" opacity="1.000000" stroke="none" 
	d="
M52.358604,6.987391 
	C52.002644,6.977038 52.005527,6.567018 52.010170,6.362076 
	C52.903870,6.207653 53.792931,6.258171 54.765846,6.636642 
	C54.137989,6.975644 53.426273,6.986694 52.358604,6.987391 
z"/>
<path fill="#82C644" opacity="1.000000" stroke="none" 
	d="
M32.651871,5.899595 
	C32.296211,6.283948 31.562016,6.629968 30.451185,6.745515 
	C30.074553,6.515043 30.015303,6.037966 30.015303,6.037966 
	C30.767977,5.979064 31.520653,5.920162 32.651871,5.899595 
z"/>
<path fill="#5E9924" opacity="1.000000" stroke="none" 
	d="
M29.643330,5.959978 
	C30.015303,6.037966 30.074553,6.515043 30.130760,6.749054 
	C30.186968,6.983065 30.081125,6.999512 29.656736,6.995687 
	C28.483078,6.985980 27.733810,6.980099 26.984541,6.974217 
	C26.984541,6.974217 26.992357,6.485551 27.000313,6.241320 
	C27.762630,5.958723 28.516993,5.920356 29.643330,5.959978 
z"/>
<path fill="#63A82D" opacity="1.000000" stroke="none" 
	d="
M16.009127,6.993604 
	C16.009127,6.993604 16.010990,6.574742 16.019402,6.366518 
	C16.767727,6.112522 17.507641,6.066749 18.616179,6.070786 
	C18.984800,6.120595 19.000713,6.565878 18.625889,6.783840 
	C17.503752,6.999069 16.756439,6.996337 16.009127,6.993604 
z"/>
<path fill="#6C59E3" opacity="1.000000" stroke="none" 
	d="
M45.012787,45.311188 
	C45.464470,45.024120 45.918343,45.010765 46.713425,45.001911 
	C46.592216,45.342068 46.129795,45.677727 45.355206,46.072502 
	C45.033684,45.949379 45.024330,45.767139 45.012787,45.311188 
z"/>
<path fill="#63A82D" opacity="1.000000" stroke="none" 
	d="
M21.759102,6.060894 
	C22.001919,6.081053 22.001125,6.534665 22.002983,6.761340 
	C21.725351,6.878512 21.484896,6.712483 21.159832,6.307089 
	C21.036190,6.124252 21.516285,6.040736 21.759102,6.060894 
z"/>
<path fill="#000001" opacity="1.000000" stroke="none" 
	d="
M10.382225,70.836197 
	C9.214852,69.469841 8.427164,67.936363 8.195147,66.339813 
	C10.196787,66.224037 11.642757,66.171326 13.321039,66.043510 
	C13.553350,65.968399 14.022624,65.833115 14.366999,65.903419 
	C15.399835,66.060432 16.088295,66.147141 16.879154,66.215897 
	C16.981556,66.197945 16.783091,66.262436 16.823645,66.598541 
	C17.874098,67.283051 18.883997,67.631454 20.060118,68.341019 
	C21.813797,68.847679 23.401255,68.993172 24.988710,69.138672 
	C20.246443,69.648811 15.504177,70.158943 10.382225,70.836197 
z"/>
<path fill="#FED09D" opacity="1.000000" stroke="none" 
	d="
M25.204645,69.051895 
	C23.401255,68.993172 21.813797,68.847679 20.120810,68.456017 
	C20.015280,68.209846 20.255545,68.109970 20.649181,68.106499 
	C22.614229,68.074402 24.185637,68.045784 25.819431,68.217041 
	C25.881819,68.416908 25.867586,68.835442 25.867586,68.835442 
	C25.867586,68.835442 25.420580,68.965126 25.204645,69.051895 
z"/>
<path fill="#986B4B" opacity="1.000000" stroke="none" 
	d="
M26.157040,68.889915 
	C25.867586,68.835442 25.881819,68.416908 25.923046,68.212952 
	C25.964275,68.008987 26.171366,67.998833 26.375385,68.007202 
	C26.579403,68.015579 26.985970,67.977119 27.264971,68.003891 
	C28.002827,68.313644 28.461681,68.596619 28.920536,68.879601 
	C28.496952,68.928101 28.073366,68.976601 27.331642,69.064606 
	C26.824499,69.050873 26.635496,68.997635 26.157040,68.889915 
z"/>
<path fill="#6B4630" opacity="1.000000" stroke="none" 
	d="
M8.091068,49.929253 
	C8.082173,49.188301 8.073278,48.447350 8.495041,47.347908 
	C11.623146,45.989014 14.320594,44.988613 17.351681,43.996811 
	C18.089638,41.983368 18.493954,39.961330 18.929268,37.955723 
	C18.960264,37.972149 19.018282,38.011604 19.416988,38.033657 
	C24.084980,40.173748 21.055725,44.093742 22.017738,47.266338 
	C22.005268,47.507431 21.990780,47.991425 21.667374,48.038620 
	C20.800859,48.692215 20.257751,49.298618 19.371973,49.962143 
	C18.282904,51.009041 17.536505,51.998814 16.450947,52.992573 
	C15.435081,52.989002 14.758375,52.981453 14.036745,52.587009 
	C12.309372,51.467861 10.626924,50.735607 8.729885,49.999077 
	C8.515296,49.994808 8.091068,49.929253 8.091068,49.929253 
z"/>
<path fill="#78533C" opacity="1.000000" stroke="none" 
	d="
M17.018042,43.988216 
	C14.320594,44.988613 11.623146,45.989014 8.542435,46.980080 
	C8.130392,45.287563 8.101614,43.604382 8.346301,41.334312 
	C9.027523,39.865303 9.435279,38.983177 9.843035,38.101055 
	C10.053684,38.068161 10.264334,38.035263 11.149590,37.985210 
	C12.543798,37.941441 13.263403,37.914822 13.949707,37.958977 
	C13.916409,38.029751 13.905912,38.185837 13.955795,38.529987 
	C14.997382,39.591076 15.989086,40.308018 16.986893,41.395462 
	C17.001345,42.506714 17.009693,43.247467 17.018042,43.988216 
z"/>
<path fill="#956749" opacity="1.000000" stroke="none" 
	d="
M13.088727,66.118622 
	C11.642757,66.171326 10.196787,66.224037 8.442665,66.113678 
	C8.090480,63.250088 8.046447,60.549564 8.071962,57.135319 
	C8.483424,55.939896 8.825337,55.458202 9.491117,55.085297 
	C11.198603,56.462959 12.582220,57.731831 14.303457,59.017998 
	C15.440528,59.360897 16.239981,59.686504 16.807686,60.246452 
	C13.802200,61.363396 11.663992,62.639099 13.088727,66.118622 
z"/>
<path fill="#000000" opacity="1.000000" stroke="none" 
	d="
M9.167251,54.976505 
	C8.825337,55.458202 8.483424,55.939896 8.006742,56.688042 
	C7.774427,54.799969 7.676883,52.645443 7.835203,50.210087 
	C8.091068,49.929253 8.515296,49.994808 8.752029,50.414070 
	C9.048259,52.214390 9.107755,53.595448 9.167251,54.976505 
z"/>
<path fill="#000000" opacity="1.000000" stroke="none" 
	d="
M9.555704,38.071373 
	C9.435279,38.983177 9.027523,39.865303 8.376398,40.914215 
	C7.970091,40.170769 7.807153,39.260529 7.881638,38.138844 
	C8.502165,37.965496 8.885269,38.003593 9.555704,38.071373 
z"/>
<path fill="#352543" opacity="1.000000" stroke="none" 
	d="
M37.001419,43.074299 
	C38.448864,47.911407 39.896309,52.748512 41.644554,58.046455 
	C41.910473,58.671783 41.875595,58.836269 41.420532,59.001083 
	C39.877277,59.059566 38.754211,59.117722 37.465546,59.129250 
	C37.299950,59.082623 36.965321,59.002548 36.964790,58.694939 
	C36.675919,57.891682 36.387573,57.396030 35.981182,56.671753 
	C35.584904,56.251835 35.306679,56.060543 34.873711,55.564400 
	C34.466240,54.163284 34.213509,53.067017 33.972076,51.566734 
	C34.265282,47.491154 34.547184,43.819584 35.183022,40.121674 
	C36.242241,40.060287 36.947525,40.025246 37.652813,39.990204 
	C37.586597,40.503696 37.520386,41.017189 37.293365,42.028465 
	C37.068695,42.704094 37.024982,42.886780 37.001419,43.074299 
z"/>
<path fill="#2F3C41" opacity="1.000000" stroke="none" 
	d="
M37.878708,39.859261 
	C36.947525,40.025246 36.242241,40.060287 35.202740,40.073830 
	C34.868526,40.052334 34.969574,40.061108 34.992462,39.712193 
	C35.014606,38.897873 35.013866,38.432472 35.026512,37.732178 
	C35.039894,37.497292 35.054279,37.026974 35.248779,36.888428 
	C35.684105,36.532173 35.866692,36.273365 36.128155,35.678596 
	C36.539040,34.568600 36.812801,33.753464 37.303352,32.773560 
	C38.011284,32.071678 38.502426,31.534567 39.210644,30.999485 
	C39.427723,31.001514 39.861839,31.008482 39.861839,31.008482 
	C39.891621,31.756210 39.921402,32.503941 39.790852,33.948990 
	C39.371689,36.098854 39.112858,37.551399 38.854023,39.003941 
	C38.604218,39.245403 38.354412,39.486862 37.878708,39.859261 
z"/>
<path fill="#2E8E90" opacity="1.000000" stroke="none" 
	d="
M39.229660,38.952820 
	C39.112858,37.551399 39.371689,36.098854 39.812309,34.323078 
	C40.941189,34.630573 41.888279,35.261299 42.835373,35.892029 
	C41.758682,36.895252 40.681992,37.898472 39.229660,38.952820 
z"/>
<path fill="#2E8E90" opacity="1.000000" stroke="none" 
	d="
M46.141006,30.942440 
	C44.659794,30.306574 43.178577,29.670706 41.009071,29.011221 
	C39.880264,28.994299 39.439751,29.000996 38.990280,28.777615 
	C38.981323,28.547535 38.960709,28.087587 39.206791,27.967648 
	C39.915863,27.317772 40.378853,26.787836 41.196739,26.232544 
	C42.023079,26.156675 42.494530,26.106167 43.146824,26.270161 
	C43.845184,26.691475 44.362694,26.898291 44.933941,27.441193 
	C45.372116,28.832335 45.756561,29.887388 46.141006,30.942440 
z"/>
<path fill="#2E8E90" opacity="1.000000" stroke="none" 
	d="
M45.998672,42.498032 
	C45.555237,42.877155 45.107410,42.902279 44.324615,42.888603 
	C43.864960,41.697819 43.740276,40.545830 43.615589,39.393837 
	C44.055893,39.285130 44.496197,39.176422 44.936497,39.067715 
	C45.289093,40.093151 45.641685,41.118591 45.998672,42.498032 
z"/>
<path fill="#744B3E" opacity="1.000000" stroke="none" 
	d="
M46.419434,30.936340 
	C45.756561,29.887388 45.372116,28.832335 45.226669,27.440098 
	C45.976227,27.343906 46.486794,27.584902 47.116028,28.130108 
	C47.529346,29.019787 47.823997,29.605255 48.118649,30.190723 
	C47.645054,30.437231 47.171455,30.683737 46.419434,30.936340 
z"/>
<path fill="#318889" opacity="1.000000" stroke="none" 
	d="
M52.101627,28.904070 
	C52.085613,29.361116 52.069595,29.818163 52.066757,30.617485 
	C51.492882,30.740559 50.905834,30.521355 50.102737,29.723495 
	C49.848480,28.708851 49.810272,28.272863 50.080833,27.813969 
	C50.595238,27.789351 50.800873,27.787636 51.157623,28.001030 
	C51.573032,28.445452 51.837330,28.674761 52.101627,28.904070 
z"/>
<path fill="#865445" opacity="1.000000" stroke="none" 
	d="
M48.343361,30.106228 
	C47.823997,29.605255 47.529346,29.019787 47.455658,28.157486 
	C48.129875,27.901497 48.583130,27.922338 49.032349,28.251713 
	C49.015244,28.970469 49.002178,29.380692 48.989109,29.790913 
	C48.989109,29.790913 48.568077,30.021732 48.343361,30.106228 
z"/>
<path fill="#2E4246" opacity="1.000000" stroke="none" 
	d="
M38.999237,29.007694 
	C39.439751,29.000996 39.880264,28.994299 40.650757,28.996670 
	C40.692577,29.499374 40.404423,29.993013 39.989052,30.747566 
	C39.861839,31.008482 39.427723,31.001514 39.215721,30.667877 
	C39.002228,29.892057 39.000732,29.449877 38.999237,29.007694 
z"/>
<path fill="#744B3E" opacity="1.000000" stroke="none" 
	d="
M49.223331,29.812777 
	C49.002178,29.380692 49.015244,28.970469 49.215866,28.223938 
	C49.403423,27.887630 49.772068,27.836874 49.772064,27.836874 
	C49.810272,28.272863 49.848480,28.708851 49.906631,29.471216 
	C49.926575,29.797592 49.457554,29.834641 49.223331,29.812777 
z"/>
<path fill="#2F3C41" opacity="1.000000" stroke="none" 
	d="
M37.149166,43.028465 
	C37.024982,42.886780 37.068695,42.704094 37.178646,42.400688 
	C37.224731,42.275127 37.482426,42.517632 37.531017,42.687271 
	C37.579609,42.856911 37.296913,42.982635 37.149166,43.028465 
z"/>
<path fill="#908C8E" opacity="1.000000" stroke="none" 
	d="
M41.840721,59.000751 
	C41.875595,58.836269 41.910473,58.671783 41.925797,58.255470 
	C43.458515,57.387703 45.010796,56.771759 46.909760,56.002285 
	C47.726700,56.104099 48.196945,56.359444 48.835480,57.175716 
	C48.976215,58.461510 48.948658,59.186378 48.881210,59.884102 
	C48.841316,59.856960 48.759796,59.908596 48.537743,60.010788 
	C47.720516,60.394657 47.125340,60.676331 46.091686,60.844452 
	C44.457451,60.743206 43.261692,60.755508 42.067455,60.469475 
	C41.992893,59.781006 41.916809,59.390881 41.840721,59.000751 
z"/>
<path fill="#694430" opacity="1.000000" stroke="none" 
	d="
M52.004272,63.030823 
	C54.037205,64.007851 56.070137,64.984871 58.476166,65.947739 
	C57.706898,66.955460 56.652328,68.702255 55.404499,68.853394 
	C52.505650,69.204491 49.513554,68.785683 46.276352,67.952148 
	C46.003201,65.792030 46.012947,64.358681 46.393501,62.972290 
	C47.512253,63.026833 48.260204,63.034412 49.007263,63.020332 
	C49.006371,62.998672 48.975887,63.029461 48.980923,63.384918 
	C49.526814,64.392334 50.067665,65.044289 50.608521,65.696251 
	C51.082996,64.801178 51.557468,63.906105 52.018826,63.004173 
	C52.005711,62.997311 52.004272,63.030823 52.004272,63.030823 
z"/>
<path fill="#8B6045" opacity="1.000000" stroke="none" 
	d="
M41.042557,68.079346 
	C38.018948,68.168877 34.995338,68.258408 31.879505,67.614113 
	C31.861637,66.582108 31.935993,66.283936 32.344391,65.924622 
	C33.123863,64.914955 33.569298,63.966412 34.428364,63.002483 
	C35.949638,62.985779 37.057281,62.984459 38.437027,63.150940 
	C39.500347,63.613094 40.291561,63.907448 41.059654,64.494080 
	C41.025436,65.177155 41.014347,65.567940 40.998089,66.311989 
	C41.009464,67.136612 41.026012,67.607979 41.042557,68.079346 
z"/>
<path fill="#734B36" opacity="1.000000" stroke="none" 
	d="
M41.452263,68.050232 
	C41.026012,67.607979 41.009464,67.136612 41.334290,66.262238 
	C42.119431,65.167740 42.563206,64.476257 42.992638,63.586548 
	C42.978294,63.388325 42.992908,62.991112 43.300629,62.900505 
	C44.421062,62.560947 45.233776,62.312000 46.050186,62.278885 
	C46.053883,62.494720 46.022697,62.925323 46.022697,62.925323 
	C46.012947,64.358681 46.003201,65.792030 45.982681,67.659515 
	C44.601933,68.069473 43.231953,68.045296 41.452263,68.050232 
z"/>
<path fill="#785138" opacity="1.000000" stroke="none" 
	d="
M32.010349,65.985756 
	C31.935993,66.283936 31.861637,66.582108 31.629881,67.315689 
	C30.789152,68.120110 30.105822,68.489120 29.171513,68.868866 
	C28.461681,68.596619 28.002827,68.313644 27.160610,67.808777 
	C26.609201,67.337051 26.395344,67.135925 26.040745,66.981255 
	C25.945818,66.978996 25.761580,67.025055 25.818512,66.815948 
	C25.875446,66.606850 25.934719,66.177498 25.996784,65.859818 
	C26.704088,64.699455 27.349327,63.856766 28.242943,62.994476 
	C28.491322,62.974869 28.989086,62.954922 29.009075,63.319046 
	C30.009253,64.460869 30.989443,65.238571 31.974625,66.001938 
	C31.979616,65.987610 32.010349,65.985756 32.010349,65.985756 
z"/>
<path fill="#7F553C" opacity="1.000000" stroke="none" 
	d="
M22.030207,47.025246 
	C21.055725,44.093742 24.084980,40.173748 19.401102,37.667789 
	C18.946350,36.551113 18.906191,35.822361 18.866032,35.093605 
	C19.078135,35.074505 19.290236,35.055408 20.137009,34.998619 
	C21.195505,34.940102 21.619331,34.919273 22.400814,34.940849 
	C23.478401,35.022526 24.198326,35.061794 24.950657,35.424515 
	C25.331114,36.500885 25.679171,37.253807 25.998497,38.003143 
	C25.969765,37.999557 25.982872,37.943153 25.990063,38.270237 
	C26.286840,39.366077 26.576426,40.134834 26.910099,41.290192 
	C26.675812,43.425182 26.397438,45.173573 25.728458,46.944233 
	C24.558290,46.979340 23.778732,46.992176 22.756813,47.004456 
	C22.514456,47.003891 22.030207,47.025246 22.030207,47.025246 
z"/>
<path fill="#8D6046" opacity="1.000000" stroke="none" 
	d="
M21.989407,29.041464 
	C21.993818,28.302736 21.998228,27.564007 22.015083,26.095928 
	C22.056606,24.649267 22.085690,23.931959 22.473061,23.172981 
	C23.552341,23.085415 24.273333,23.039518 25.239342,23.015354 
	C25.484358,23.037085 25.971531,23.105515 26.087601,23.272079 
	C26.379511,23.650080 26.588516,23.820963 26.883938,24.224548 
	C26.905201,24.680618 26.873213,24.863438 26.732029,25.143917 
	C26.475790,25.534433 26.553888,25.773510 26.923416,26.304024 
	C26.947655,27.113880 26.905598,27.578526 26.685038,28.164377 
	C26.291159,28.483610 26.127193,28.717653 25.610054,28.992161 
	C24.123791,29.002279 23.042110,29.007954 21.977566,29.007505 
	C21.994701,29.001381 21.989407,29.041464 21.989407,29.041464 
z"/>
<path fill="#AF8160" opacity="1.000000" stroke="none" 
	d="
M22.043156,34.898445 
	C21.619331,34.919273 21.195505,34.940102 20.454662,34.964882 
	C20.504150,33.037201 20.870653,31.105577 21.613281,29.107708 
	C21.989407,29.041464 21.994701,29.001381 22.002914,29.382122 
	C22.007189,30.515688 22.003250,31.268517 22.010109,32.381950 
	C22.028322,33.461182 22.035740,34.179813 22.043156,34.898445 
z"/>
<path fill="#AE7E5C" opacity="1.000000" stroke="none" 
	d="
M22.114773,23.214651 
	C22.085690,23.931959 22.056606,24.649267 22.012714,25.727230 
	C21.255939,26.056862 20.513975,26.025839 19.393200,25.591045 
	C19.005865,24.452290 18.997337,23.717302 18.994627,22.617317 
	C19.017006,21.524185 19.033569,20.796049 19.301483,20.070614 
	C19.719091,20.094290 19.885351,20.115267 20.045820,20.366840 
	C20.040031,20.597439 20.064554,21.058708 20.116051,21.379843 
	C20.816622,22.205536 21.465696,22.710093 22.114773,23.214651 
z"/>
<path fill="#C89369" opacity="1.000000" stroke="none" 
	d="
M11.087032,37.060150 
	C11.080603,36.876022 11.074171,36.691895 11.442397,36.249184 
	C13.178617,35.716019 14.540182,35.441444 15.901747,35.166870 
	C16.069923,35.137779 16.238098,35.108688 16.684448,35.445938 
	C16.946089,36.523911 16.929556,37.235550 16.538376,37.976166 
	C15.411124,38.065376 14.658519,38.125607 13.905912,38.185837 
	C13.905912,38.185837 13.916409,38.029751 13.720662,37.744610 
	C12.712288,37.326363 11.899660,37.193260 11.087032,37.060150 
z"/>
<path fill="#9D6F4E" opacity="1.000000" stroke="none" 
	d="
M18.988811,22.982315 
	C18.997337,23.717302 19.005865,24.452290 19.023865,25.552326 
	C18.588911,25.956057 18.144482,25.994734 17.368271,26.070297 
	C17.036488,26.107187 17.005692,26.002243 16.998285,25.587608 
	C16.996857,24.443079 17.002832,23.713186 17.338217,23.011995 
	C18.108019,23.021238 18.548416,23.001778 18.988811,22.982315 
z"/>
<path fill="#D3A37C" opacity="1.000000" stroke="none" 
	d="
M15.504366,35.114510 
	C14.540182,35.441444 13.178617,35.716019 11.454687,35.973095 
	C11.092320,35.955593 11.067381,35.540394 11.083443,35.333210 
	C12.435332,35.104736 13.771159,35.083443 15.504366,35.114510 
z"/>
<path fill="#B2815D" opacity="1.000000" stroke="none" 
	d="
M18.661119,35.081059 
	C18.906191,35.822361 18.946350,36.551113 19.002396,37.645737 
	C19.018282,38.011604 18.960264,37.972149 18.712128,37.970070 
	C18.463993,37.967987 18.027719,37.971836 18.021593,37.612179 
	C18.025961,36.535561 18.036457,35.818604 18.046953,35.101643 
	C18.046953,35.101643 18.456207,35.068512 18.661119,35.081059 
z"/>
<path fill="#9C6F52" opacity="1.000000" stroke="none" 
	d="
M17.764599,35.081257 
	C18.036457,35.818604 18.025961,36.535561 18.010269,37.623383 
	C18.005074,37.994247 17.981474,38.013023 17.714226,37.998764 
	C17.268995,37.972061 17.091009,37.959621 16.913025,37.947186 
	C16.929556,37.235550 16.946089,36.523911 16.940165,35.458149 
	C17.105886,35.089638 17.294065,35.075256 17.764599,35.081257 
z"/>
<path fill="#945D4A" opacity="1.000000" stroke="none" 
	d="
M54.185291,25.161077 
	C54.138058,25.386896 54.090824,25.612715 53.685066,26.123917 
	C52.569977,26.615568 51.813419,26.821833 50.807167,26.796906 
	C49.693394,26.312654 48.829308,26.059593 47.931107,25.516571 
	C47.609520,24.289865 47.322052,23.353123 47.229454,22.269291 
	C47.677315,21.923561 47.892971,21.690420 48.393173,21.346834 
	C49.703594,20.842999 50.692139,20.415113 51.694992,20.340279 
	C51.729496,21.164047 51.749687,21.634768 51.865639,22.374195 
	C52.264370,22.870899 52.567341,23.098894 52.919693,23.574051 
	C53.291130,24.183926 53.613182,24.546640 53.996532,24.973492 
	C54.057835,25.037628 54.185291,25.161077 54.185291,25.161077 
z"/>
<path fill="#5E9924" opacity="1.000000" stroke="none" 
	d="
M55.795002,14.929502 
	C55.885288,16.317799 55.975574,17.706093 56.087410,19.507889 
	C55.916515,19.967432 55.724079,20.013475 55.178474,19.908373 
	C54.825310,19.757225 54.769894,19.284214 54.679108,18.977299 
	C54.233978,18.459711 53.879635,18.249039 53.363613,18.040171 
	C53.201939,18.041973 52.880299,18.075371 52.905373,17.933395 
	C52.930443,17.791418 53.018871,17.516970 53.274376,17.275085 
	C53.686653,16.359982 53.843430,15.686762 54.287140,15.004513 
	C54.764980,14.981901 54.955883,14.968319 55.309006,14.952663 
	C55.471222,14.950590 55.795002,14.929502 55.795002,14.929502 
z"/>
<path fill="#324D50" opacity="1.000000" stroke="none" 
	d="
M51.056858,27.028095 
	C51.813419,26.821833 52.569977,26.615568 53.613022,26.462391 
	C53.899502,26.515480 53.835945,26.854609 53.799553,27.026398 
	C53.342041,27.675076 52.920925,28.151962 52.300720,28.766460 
	C51.837330,28.674761 51.573032,28.445452 51.162331,27.811245 
	C51.015926,27.406345 51.056858,27.028097 51.056858,27.028095 
z"/>
<path fill="#5B3A34" opacity="1.000000" stroke="none" 
	d="
M54.769894,19.284214 
	C54.769894,19.284214 54.825310,19.757225 54.892231,19.986820 
	C54.965397,20.634714 54.971642,21.053013 54.791809,21.756355 
	C54.605736,22.041397 54.242355,22.000784 54.207611,21.638214 
	C54.124027,20.549894 54.075188,19.824142 54.214020,19.137716 
	C54.401688,19.177042 54.769894,19.284214 54.769894,19.284214 
z"/>
<path fill="#945D4A" opacity="1.000000" stroke="none" 
	d="
M54.242355,22.000784 
	C54.242355,22.000784 54.605736,22.041397 54.785988,22.071060 
	C54.833099,22.944881 54.699959,23.789040 54.376053,24.897137 
	C54.185291,25.161077 54.057835,25.037628 53.997231,24.623106 
	C53.890858,23.741350 53.845081,23.274117 53.820786,22.600964 
	C53.842266,22.395044 53.850826,21.981060 53.948883,21.982592 
	C54.046936,21.984123 54.242355,22.000784 54.242355,22.000784 
z"/>
<path fill="#000000" opacity="1.000000" stroke="none" 
	d="
M8.398357,23.919449 
	C7.974833,22.856092 7.807166,21.628397 8.090714,20.202137 
	C8.541927,20.003572 8.939340,20.067739 9.022117,20.297237 
	C9.293364,20.819830 9.560399,20.988539 9.906001,21.032866 
	C9.488739,21.940279 9.071476,22.847694 8.398357,23.919449 
z"/>
<path fill="#AF7F5B" opacity="1.000000" stroke="none" 
	d="
M17.008810,22.983292 
	C17.002832,23.713186 16.996857,24.443079 16.982214,25.535339 
	C15.988514,25.239271 15.003480,24.580839 14.011742,23.458746 
	C14.005038,22.995087 14.038853,22.765018 14.357046,22.849236 
	C15.331162,22.940876 15.987083,22.948301 16.736565,22.934662 
	C16.830122,22.913601 17.008810,22.983292 17.008810,22.983292 
z"/>
<path fill="#CB9A71" opacity="1.000000" stroke="none" 
	d="
M13.987251,23.109985 
	C13.018609,22.714808 12.067753,22.204727 11.448694,21.344316 
	C12.536829,21.021502 13.293168,21.049021 14.038173,21.358288 
	C14.030844,22.015028 14.034848,22.390024 14.038853,22.765018 
	C14.038853,22.765018 14.005038,22.995087 13.987251,23.109985 
z"/>
<path fill="#8C6D47" opacity="1.000000" stroke="none" 
	d="
M14.049506,21.076540 
	C13.293168,21.049021 12.536829,21.021502 11.403463,21.001862 
	C10.839883,21.009674 10.653331,21.009609 10.186390,21.021204 
	C9.560399,20.988539 9.293364,20.819830 9.366795,20.269386 
	C10.089603,19.984838 10.550510,19.957642 11.387873,19.954758 
	C12.516501,19.936268 13.268674,19.893469 14.012743,19.919704 
	C14.004639,19.988739 13.980438,20.123308 13.976465,20.316319 
	C13.972491,20.509331 13.949775,20.896910 13.984470,20.936398 
	C14.019165,20.975885 14.049506,21.076540 14.049506,21.076540 
z"/>
<path fill="#6B432B" opacity="1.000000" stroke="none" 
	d="
M48.921101,59.911243 
	C48.948658,59.186378 48.976215,58.461510 49.019821,57.374916 
	C49.742599,57.010448 50.449322,57.007713 51.557236,57.328518 
	C52.010437,58.072670 52.062447,58.493286 52.090561,59.170494 
	C52.079411,59.598423 52.092152,59.769756 52.104897,59.941090 
	C52.063652,60.377529 52.022404,60.813972 51.709015,61.393097 
	C50.598282,60.994270 49.759693,60.452759 48.921101,59.911243 
z"/>
<path fill="#AC7C5A" opacity="1.000000" stroke="none" 
	d="
M52.468086,59.930473 
	C52.092152,59.769756 52.079411,59.598423 52.308357,58.945068 
	C52.698578,57.643467 52.847099,56.823883 53.327484,56.003517 
	C54.101665,56.005302 54.543983,56.007877 54.992569,56.005238 
	C54.998833,56.000023 55.014194,55.988712 55.014194,55.988712 
	C54.286552,57.299091 53.558914,58.609470 52.468086,59.930473 
z"/>
<path fill="#78523A" opacity="1.000000" stroke="none" 
	d="
M48.881210,59.884102 
	C49.759693,60.452759 50.598282,60.994270 51.677391,61.720428 
	C51.934734,62.092422 51.951557,62.279778 51.986328,62.748978 
	C52.004272,63.030823 52.005711,62.997311 51.636444,63.000072 
	C50.503418,63.011711 49.739651,63.020584 48.975887,63.029461 
	C48.975887,63.029461 49.006371,62.998672 49.012367,62.626736 
	C48.932171,61.472733 48.845985,60.690662 48.759796,59.908596 
	C48.759796,59.908596 48.841316,59.856960 48.881210,59.884102 
z"/>
<path fill="#83583E" opacity="1.000000" stroke="none" 
	d="
M54.981888,53.939545 
	C55.627441,54.410030 56.272991,54.880516 56.981201,55.672886 
	C56.592545,55.994923 56.141235,55.995071 55.352058,55.991966 
	C55.014194,55.988712 54.998833,56.000023 54.996841,55.660252 
	C54.990528,54.860168 54.986206,54.399857 54.981888,53.939545 
z"/>
<path fill="#81C13F" opacity="1.000000" stroke="none" 
	d="
M55.862938,14.571844 
	C55.795002,14.929502 55.471222,14.950590 55.268032,14.585864 
	C55.056683,13.482348 55.048523,12.743560 55.040363,12.004770 
	C55.040363,12.004770 55.428391,12.015599 55.621834,12.028049 
	C55.853809,12.765060 55.892338,13.489622 55.862938,14.571844 
z"/>
<path fill="#558525" opacity="1.000000" stroke="none" 
	d="
M11.011418,19.930445 
	C10.550510,19.957642 10.089603,19.984838 9.284018,20.039886 
	C8.939340,20.067739 8.541927,20.003572 8.344269,19.966995 
	C8.139592,19.185207 8.132574,18.439997 8.199662,17.328323 
	C8.953498,16.976339 9.633229,16.990816 10.656578,17.368654 
	C11.003936,18.464827 11.007677,19.197636 11.011418,19.930445 
z"/>
<path fill="#9D6F4E" opacity="1.000000" stroke="none" 
	d="
M54.767639,53.803551 
	C54.986206,54.399857 54.990528,54.860168 54.990574,55.665466 
	C54.543983,56.007877 54.101665,56.005302 53.101162,56.008316 
	C52.542976,56.013901 52.093216,56.066658 52.093216,56.066658 
	C52.053661,55.613129 52.014107,55.159595 51.970184,54.364830 
	C52.828339,53.904911 53.690865,53.786232 54.767639,53.803551 
z"/>
<path fill="#BC8B68" opacity="1.000000" stroke="none" 
	d="
M52.045731,56.307892 
	C52.093216,56.066658 52.542976,56.013901 52.769302,56.009102 
	C52.847099,56.823883 52.698578,57.643467 52.332256,58.688473 
	C52.062447,58.493286 52.010437,58.072670 51.911453,57.337181 
	C51.864479,57.022305 51.998241,56.549122 52.045731,56.307892 
z"/>
<path fill="#5E902B" opacity="1.000000" stroke="none" 
	d="
M43.980045,8.990551 
	C46.360271,8.340357 48.740501,7.690164 51.549038,7.069151 
	C51.982769,7.517785 51.988190,7.937236 51.680367,8.737097 
	C50.247936,10.346169 49.128754,11.574832 47.786415,12.770335 
	C47.271133,12.610564 47.058926,12.402419 46.933685,11.743668 
	C45.974995,10.587560 45.009258,9.800522 44.027977,9.008324 
	C44.012432,9.003164 43.980045,8.990551 43.980045,8.990551 
z"/>
<path fill="#7EB03F" opacity="1.000000" stroke="none" 
	d="
M48.009567,12.803495 
	C49.128754,11.574832 50.247936,10.346169 51.683487,9.052723 
	C52.013680,9.754869 52.027512,10.521799 52.042496,12.020514 
	C52.041439,13.218762 52.039230,13.685225 51.670364,14.100044 
	C50.584270,13.886819 49.864834,13.725237 48.978188,13.408637 
	C48.546688,13.098519 48.279549,12.948478 48.009567,12.803495 
z"/>
<path fill="#5C8D2A" opacity="1.000000" stroke="none" 
	d="
M52.037022,14.151688 
	C52.039230,13.685225 52.041439,13.218762 52.058121,12.403574 
	C52.813522,12.036025 53.554451,12.017202 54.667870,12.001575 
	C55.048523,12.743560 55.056683,13.482348 55.105816,14.587938 
	C54.955883,14.968319 54.764980,14.981901 54.009651,14.974331 
	C52.975822,14.686016 52.506420,14.418852 52.037022,14.151688 
z"/>
<path fill="#5E8F2C" opacity="1.000000" stroke="none" 
	d="
M37.969498,7.033808 
	C38.725853,7.022600 39.482204,7.011392 40.615616,7.004636 
	C40.998013,7.445441 41.003349,7.881793 41.006348,9.001302 
	C41.010174,10.389816 41.016342,11.095173 40.631321,11.872020 
	C39.183369,12.001761 38.126602,12.060014 37.129673,11.863821 
	C36.787994,11.066298 36.386486,10.523217 35.989128,9.734360 
	C35.993282,9.488583 35.999203,8.996993 35.999203,8.996993 
	C35.999203,8.996993 36.000206,8.999880 36.305504,8.937086 
	C37.063698,8.260798 37.516598,7.647303 37.969498,7.033808 
z"/>
<path fill="#659833" opacity="1.000000" stroke="none" 
	d="
M41.022511,11.800529 
	C41.016342,11.095173 41.010174,10.389816 41.012291,9.329166 
	C41.760803,8.981461 42.501030,8.989045 43.610649,8.993590 
	C43.980045,8.990551 44.012432,9.003164 44.013382,9.338402 
	C44.013561,10.114492 44.012791,10.555346 43.722786,11.125217 
	C42.629868,11.436335 41.826187,11.618432 41.022511,11.800529 
z"/>
<path fill="#4A791B" opacity="1.000000" stroke="none" 
	d="
M11.387873,19.954758 
	C11.007677,19.197636 11.003936,18.464827 10.997477,17.363754 
	C10.993752,16.551365 10.992744,16.107239 11.370844,15.330368 
	C12.499433,14.990197 13.248914,14.982770 14.000296,15.385273 
	C14.008413,17.147024 14.014630,18.498846 14.020847,19.850668 
	C13.268674,19.893469 12.516501,19.936268 11.387873,19.954758 
z"/>
<path fill="#6A9F34" opacity="1.000000" stroke="none" 
	d="
M13.998396,14.975344 
	C13.248914,14.982770 12.499433,14.990197 11.374875,14.997219 
	C10.999871,14.247860 10.999943,13.498906 11.000101,12.374882 
	C11.000189,11.999811 10.999998,12.000002 11.374470,12.000370 
	C12.499493,12.000610 13.250044,12.000484 14.000696,12.372535 
	C13.999996,13.488256 13.999196,14.231800 13.998396,14.975344 
z"/>
<path fill="#629631" opacity="1.000000" stroke="none" 
	d="
M30.011507,9.000528 
	C30.469250,8.996955 30.926994,8.993380 31.970230,8.999061 
	C32.555721,9.008317 33.039871,9.093751 33.021660,9.454136 
	C32.998985,10.537864 32.994526,11.261206 32.632721,12.007080 
	C31.521858,13.003225 30.768335,13.976839 29.678265,14.965884 
	C28.893520,14.978663 28.445326,14.976012 27.979582,14.613832 
	C26.981716,13.493305 26.001396,12.732307 24.907831,11.715313 
	C24.548475,10.955951 24.302368,10.452584 24.038719,9.711962 
	C24.021175,9.474707 24.009321,8.999047 24.009321,8.999047 
	C24.009321,8.999047 24.496735,9.003036 25.160469,9.003807 
	C27.219973,9.003228 28.615740,9.001879 30.011507,9.000528 
z"/>
<path fill="#4B8020" opacity="1.000000" stroke="none" 
	d="
M23.591156,9.000227 
	C24.009321,8.999047 24.021175,9.474707 23.700895,9.800483 
	C21.949850,10.759604 20.519085,11.392950 19.066399,12.018987 
	C19.044477,12.011678 18.999754,12.000029 19.000175,11.625021 
	C19.000574,10.499990 19.000547,9.749966 19.000257,8.999970 
	C18.999992,9.000000 18.999510,9.002355 18.999510,9.002355 
	C20.390671,9.002039 21.781830,9.001722 23.591156,9.000227 
z"/>
<path fill="#4F8523" opacity="1.000000" stroke="none" 
	d="
M15.669725,6.996859 
	C16.756439,6.996337 17.503752,6.999069 18.625278,7.006623 
	C18.999723,7.453436 18.999952,7.895428 18.999846,8.669888 
	C18.999510,9.002355 18.999992,9.000000 18.750042,8.999979 
	C18.333368,9.000158 18.166647,9.000359 17.599735,9.000507 
	C16.130703,8.997907 15.061860,8.995358 13.995897,8.663609 
	C13.990877,7.896232 13.982977,7.458058 13.975077,7.019883 
	C14.426826,7.013294 14.878575,7.006704 15.669725,6.996859 
z"/>
<path fill="#417617" opacity="1.000000" stroke="none" 
	d="
M30.012407,8.667635 
	C28.615740,9.001879 27.219973,9.003228 25.404179,9.005267 
	C24.987923,8.561473 24.991692,8.116990 25.000956,7.340126 
	C25.446507,7.002171 25.886564,6.996597 26.655581,6.982621 
	C27.733810,6.980099 28.483078,6.985980 29.603226,6.997917 
	C29.987173,7.447562 30.000240,7.891152 30.012407,8.667635 
z"/>
<path fill="#4D8724" opacity="1.000000" stroke="none" 
	d="
M32.990067,11.984549 
	C32.994526,11.261206 32.998985,10.537864 33.341518,9.423427 
	C34.107365,9.008699 34.535141,8.985067 34.962914,8.961435 
	C35.135380,8.975066 35.307842,8.988698 35.739754,8.999661 
	C35.999203,8.996993 35.993282,9.488583 35.990402,10.073134 
	C35.984272,11.108796 35.981026,11.559905 35.608387,12.005808 
	C34.494293,12.002604 33.749592,12.004606 33.001762,12.002413 
	C32.998634,11.998217 32.990067,11.984549 32.990067,11.984549 
z"/>
<path fill="#4B8020" opacity="1.000000" stroke="none" 
	d="
M37.642021,7.011134 
	C37.516598,7.647303 37.063698,8.260798 36.308666,8.937464 
	C35.998692,8.557678 35.990849,8.114721 35.992485,7.339745 
	C36.439484,7.001302 36.877014,6.994881 37.642021,7.011134 
z"/>
<path fill="#85BF49" opacity="1.000000" stroke="none" 
	d="
M34.768929,8.748571 
	C34.535141,8.985067 34.107365,9.008699 33.359734,9.063042 
	C33.039871,9.093751 32.555721,9.008317 32.312973,8.974897 
	C32.905136,8.806221 33.740040,8.670964 34.768929,8.748571 
z"/>
<path fill="#E3AA7E" opacity="1.000000" stroke="none" 
	d="
M11.072988,37.271324 
	C11.899660,37.193260 12.712288,37.326363 13.753962,37.673836 
	C13.263403,37.914822 12.543798,37.941441 11.465515,37.935562 
	C11.106835,37.903065 11.058943,37.482498 11.072988,37.271324 
z"/>
<path fill="#3F7414" opacity="1.000000" stroke="none" 
	d="
M13.609772,7.012909 
	C13.982977,7.458058 13.990877,7.896232 13.624283,8.669786 
	C12.507087,8.995541 11.764387,8.985915 11.021687,8.976290 
	C11.021687,8.976290 11.001482,8.987894 10.991693,8.996809 
	C10.989138,8.568007 10.996373,8.130289 11.031846,7.367218 
	C11.788212,7.029887 12.516339,7.017910 13.609772,7.012909 
z"/>
<path fill="#61922B" opacity="1.000000" stroke="none" 
	d="
M11.012727,9.354887 
	C11.764387,8.985915 12.507087,8.995541 13.621403,8.998987 
	C15.061860,8.995358 16.130703,8.997907 17.599777,9.375298 
	C18.000019,10.500149 18.000031,11.250158 17.600100,12.000551 
	C16.133636,12.000743 15.067116,12.000549 14.000595,12.000357 
	C13.250044,12.000484 12.499493,12.000610 11.373566,12.001276 
	C11.000049,11.245704 11.001907,10.489594 11.012727,9.354887 
z"/>
<path fill="#6E4832" opacity="1.000000" stroke="none" 
	d="
M27.994564,63.014080 
	C27.349327,63.856766 26.704088,64.699455 25.642818,65.795105 
	C24.510344,66.072678 23.793901,66.097275 22.690680,66.074905 
	C21.524988,66.014595 20.746073,66.001244 19.568726,65.992386 
	C18.374559,66.085396 17.578825,66.173912 16.783091,66.262436 
	C16.783091,66.262436 16.981556,66.197945 16.888180,65.884781 
	C15.870742,65.658775 14.946683,65.745941 14.022624,65.833115 
	C14.022624,65.833115 13.553350,65.968399 13.321039,66.043510 
	C11.663992,62.639099 13.802200,61.363396 17.175331,60.245499 
	C18.512180,60.008343 19.249638,60.006481 20.363342,60.023483 
	C23.157913,61.032917 25.576239,62.023499 27.994564,63.014080 
z"/>
<path fill="#764E38" opacity="1.000000" stroke="none" 
	d="
M14.366999,65.903419 
	C14.946683,65.745941 15.870742,65.658775 16.785778,65.902725 
	C16.088295,66.147141 15.399835,66.060432 14.366999,65.903419 
z"/>
<path fill="#764E38" opacity="1.000000" stroke="none" 
	d="
M16.823645,66.598541 
	C17.578825,66.173912 18.374559,66.085396 19.556490,66.352036 
	C20.046972,67.174782 20.151258,67.642380 20.255545,68.109970 
	C20.255545,68.109970 20.015280,68.209846 19.954588,68.094849 
	C18.883997,67.631454 17.874098,67.283051 16.823645,66.598541 
z"/>
<path fill="#D1A07B" opacity="1.000000" stroke="none" 
	d="
M20.649181,68.106499 
	C20.151258,67.642380 20.046972,67.174782 19.954922,66.347542 
	C20.746073,66.001244 21.524988,66.014595 22.888073,66.294083 
	C24.235355,66.715164 24.998468,66.870110 25.761580,67.025055 
	C25.761580,67.025055 25.945818,66.978996 26.004402,67.236664 
	C26.099113,67.662498 26.135239,67.830666 26.171366,67.998833 
	C26.171366,67.998833 25.964275,68.008987 25.860661,68.013077 
	C24.185637,68.045784 22.614229,68.074402 20.649181,68.106499 
z"/>
<path fill="#6E4832" opacity="1.000000" stroke="none" 
	d="
M26.375385,68.007202 
	C26.135239,67.830666 26.099113,67.662498 26.099331,67.238922 
	C26.395344,67.135925 26.609201,67.337051 26.881607,67.781998 
	C26.985970,67.977119 26.579403,68.015579 26.375385,68.007202 
z"/>
<path fill="#A87756" opacity="1.000000" stroke="none" 
	d="
M9.491117,55.085297 
	C9.107755,53.595448 9.048259,52.214390 8.966619,50.418343 
	C10.626924,50.735607 12.309372,51.467861 14.010582,53.017570 
	C14.008175,55.556915 13.987006,57.278809 13.965837,59.000702 
	C12.582220,57.731831 11.198603,56.462959 9.491117,55.085297 
z"/>
<path fill="#7B5137" opacity="1.000000" stroke="none" 
	d="
M14.303457,59.017998 
	C13.987006,57.278809 14.008175,55.556915 14.055506,53.404465 
	C14.758375,52.981453 15.435081,52.989002 16.547199,53.014488 
	C16.982609,53.032425 17.179605,53.045517 17.325100,53.365002 
	C18.133835,53.820564 18.797075,53.956642 19.463104,54.232143 
	C19.465893,54.371563 19.695950,54.529461 19.695950,54.529461 
	C19.695950,54.529461 19.964378,54.454037 19.725903,54.594269 
	C19.658064,55.157761 19.828697,55.581017 19.955839,56.032261 
	C19.912348,56.060246 19.905445,56.163448 19.932861,56.546711 
	C19.969217,57.954857 19.978157,58.979740 19.987097,60.004623 
	C19.249638,60.006481 18.512180,60.008343 17.407078,60.011158 
	C16.239981,59.686504 15.440528,59.360897 14.303457,59.017998 
z"/>
<path fill="#9C6F52" opacity="1.000000" stroke="none" 
	d="
M18.016396,37.983040 
	C18.027719,37.971836 18.463993,37.967987 18.681131,37.953644 
	C18.493954,39.961330 18.089638,41.983368 17.351681,43.996811 
	C17.009693,43.247467 17.001345,42.506714 17.031273,41.078121 
	C17.373526,39.597858 17.677500,38.805443 17.981474,38.013023 
	C17.981474,38.013023 18.005074,37.994247 18.016396,37.983040 
z"/>
<path fill="#9A6A4E" opacity="1.000000" stroke="none" 
	d="
M16.886358,53.010506 
	C17.536505,51.998814 18.282904,51.009041 19.482407,50.007023 
	C19.935511,49.994781 20.160776,50.072849 20.086590,50.434105 
	C19.986755,51.532738 19.961107,52.270115 19.671722,53.035378 
	C19.233362,53.090935 19.058737,53.118610 18.600185,53.126801 
	C17.937372,53.086720 17.558489,53.066120 17.179605,53.045517 
	C17.179605,53.045517 16.982609,53.032425 16.886358,53.010506 
z"/>
<path fill="#AF8160" opacity="1.000000" stroke="none" 
	d="
M19.825077,49.949902 
	C20.257751,49.298618 20.800859,48.692215 21.862114,48.061646 
	C22.380260,48.037483 22.765760,48.106552 22.831861,48.105202 
	C22.897963,48.103848 22.981699,48.001507 22.929762,48.354485 
	C22.851175,49.182232 22.824528,49.657001 22.467388,50.146439 
	C21.478191,50.131687 20.819485,50.102268 20.160776,50.072849 
	C20.160776,50.072849 19.935511,49.994781 19.825077,49.949902 
z"/>
<path fill="#90684C" opacity="1.000000" stroke="none" 
	d="
M22.765760,48.106552 
	C22.765760,48.106552 22.380260,48.037483 22.185520,48.014454 
	C21.990780,47.991425 22.005268,47.507431 22.017738,47.266338 
	C22.030207,47.025246 22.514456,47.003891 22.716278,47.283585 
	C22.867321,47.744370 22.816540,47.925461 22.765760,48.106552 
z"/>
<path fill="#90684C" opacity="1.000000" stroke="none" 
	d="
M17.714226,37.998764 
	C17.677500,38.805443 17.373526,39.597858 17.025169,40.707619 
	C15.989086,40.308018 14.997382,39.591076 13.955795,38.529987 
	C14.658519,38.125607 15.411124,38.065376 16.538378,37.976166 
	C17.091009,37.959621 17.268995,37.972061 17.714226,37.998764 
z"/>
<path fill="#020101" opacity="1.000000" stroke="none" 
	d="
M26.119064,46.921967 
	C26.397438,45.173573 26.675812,43.425182 26.970032,40.989677 
	C27.031843,39.897305 27.077810,39.492043 27.512402,39.057350 
	C29.877323,38.714706 31.853624,38.401497 33.878643,38.390068 
	C34.274765,39.148270 34.622169,39.604687 34.969574,40.061108 
	C34.969574,40.061108 34.868526,40.052334 34.848808,40.100174 
	C34.547184,43.819584 34.265282,47.491154 33.606285,51.570084 
	C32.500885,52.051086 31.772581,52.124722 30.657734,52.141556 
	C29.492634,52.094234 28.714077,52.103703 27.665264,51.964233 
	C27.229445,51.227188 27.063883,50.639084 26.928127,49.698757 
	C26.653681,48.537014 26.349426,47.727497 26.061966,46.943615 
	C26.078758,46.969250 26.119062,46.921967 26.119064,46.921967 
z"/>
<path fill="#382C33" opacity="1.000000" stroke="none" 
	d="
M42.992908,62.991112 
	C42.992908,62.991112 42.978294,63.388325 42.668991,63.642921 
	C41.934052,63.998947 41.508415,64.100372 41.082779,64.201797 
	C40.291561,63.907448 39.500347,63.613094 38.446754,62.764343 
	C37.999969,61.198586 37.815559,60.187233 37.631145,59.175877 
	C38.754211,59.117722 39.877277,59.059566 41.420532,59.001083 
	C41.916809,59.390881 41.992893,59.781006 42.087555,60.784805 
	C42.401722,61.929356 42.697315,62.460232 42.992908,62.991112 
z"/>
<path fill="#AF7F5B" opacity="1.000000" stroke="none" 
	d="
M37.465546,59.129250 
	C37.815559,60.187233 37.999969,61.198586 38.174656,62.596542 
	C37.057281,62.984459 35.949638,62.985779 34.301895,62.719070 
	C33.554974,61.869434 33.348141,61.287823 33.282940,60.627758 
	C33.600513,60.408009 33.759869,60.249973 33.948208,59.827316 
	C34.007050,59.411930 34.020325,59.244427 34.032242,58.807365 
	C34.020294,58.358406 34.009701,58.179008 34.135574,57.965157 
	C34.272049,57.930702 34.546673,57.868809 34.807716,58.096191 
	C35.700943,58.549896 36.333134,58.776222 36.965321,59.002548 
	C36.965321,59.002548 37.299950,59.082623 37.465546,59.129250 
z"/>
<path fill="#83583E" opacity="1.000000" stroke="none" 
	d="
M34.546673,57.868809 
	C34.546673,57.868809 34.272049,57.930702 33.933998,57.734329 
	C32.808784,57.414341 32.021629,57.290722 31.146006,56.928181 
	C31.029890,56.521671 31.002237,56.354092 30.981701,55.787300 
	C31.007305,54.324844 31.025793,53.261597 31.044281,52.198353 
	C31.772581,52.124722 32.500885,52.051086 33.594982,51.974098 
	C34.213509,53.067017 34.466240,54.163284 34.829849,55.802429 
	C34.940723,56.345303 34.860588,56.822422 34.768143,57.079826 
	C34.632690,57.514423 34.589684,57.691616 34.546673,57.868809 
z"/>
<path fill="#D3A37C" opacity="1.000000" stroke="none" 
	d="
M34.807716,58.096191 
	C34.589684,57.691616 34.632690,57.514423 35.077271,57.116417 
	C35.685642,56.897194 35.892437,56.898788 36.099232,56.900379 
	C36.387573,57.396030 36.675919,57.891682 36.964790,58.694939 
	C36.333134,58.776222 35.700943,58.549896 34.807716,58.096191 
z"/>
<path fill="#AF7F5B" opacity="1.000000" stroke="none" 
	d="
M35.981182,56.671753 
	C35.892437,56.898788 35.685642,56.897194 35.169716,56.859013 
	C34.860588,56.822422 34.940723,56.345303 34.984589,56.107277 
	C35.306679,56.060543 35.584904,56.251835 35.981182,56.671753 
z"/>
<path fill="#614641" opacity="1.000000" stroke="none" 
	d="
M33.829926,38.088287 
	C31.853624,38.401497 29.877323,38.714706 27.380722,38.809723 
	C26.567904,38.375404 26.275387,38.159279 25.982872,37.943153 
	C25.982872,37.943153 25.969765,37.999557 26.028893,37.658062 
	C26.125944,36.856636 26.163866,36.396706 26.523426,35.889820 
	C28.237309,34.226738 29.629557,32.610615 31.379959,31.054386 
	C33.520931,31.722300 35.303745,32.330315 37.086563,32.938332 
	C36.812801,33.753464 36.539040,34.568600 35.926971,35.811172 
	C35.334724,36.450012 35.156597,36.712803 35.054279,37.026974 
	C35.054279,37.026974 35.039894,37.497292 34.730061,37.757797 
	C34.223461,38.041637 34.026691,38.064964 33.829926,38.088287 
z"/>
<path fill="#2E5B5E" opacity="1.000000" stroke="none" 
	d="
M37.303352,32.773560 
	C35.303745,32.330315 33.520931,31.722300 31.373291,30.725647 
	C31.015846,29.898582 31.023222,29.460157 31.278120,28.817581 
	C32.396427,28.063507 33.267216,27.513586 34.498985,26.931782 
	C36.226879,27.295795 37.593796,27.691690 38.960709,28.087587 
	C38.960709,28.087587 38.981323,28.547535 38.990280,28.777615 
	C39.000732,29.449877 39.002228,29.892057 38.998642,30.665848 
	C38.502426,31.534567 38.011284,32.071678 37.303352,32.773560 
z"/>
<path fill="#3A4F54" opacity="1.000000" stroke="none" 
	d="
M33.878643,38.390068 
	C34.026691,38.064964 34.223461,38.041637 34.716675,37.992687 
	C35.013866,38.432472 35.014606,38.897873 34.992462,39.712193 
	C34.622169,39.604687 34.274765,39.148270 33.878643,38.390068 
z"/>
<path fill="#3A4F54" opacity="1.000000" stroke="none" 
	d="
M35.248779,36.888428 
	C35.156597,36.712803 35.334724,36.450012 35.789848,36.106033 
	C35.866692,36.273365 35.684105,36.532173 35.248779,36.888428 
z"/>
<path fill="#2EFCFC" opacity="1.000000" stroke="none" 
	d="
M39.206791,27.967648 
	C37.593796,27.691690 36.226879,27.295795 34.364624,26.687176 
	C33.738419,26.342201 33.607559,26.209953 33.522888,25.849281 
	C33.533443,25.292839 33.386089,25.026653 33.147102,24.633118 
	C33.167202,24.443930 33.053120,24.080935 33.153862,23.730053 
	C33.358299,22.905394 33.461994,22.431616 33.791130,22.063160 
	C34.361809,22.236334 34.676983,22.167246 35.303478,22.048521 
	C36.990696,22.493759 38.336525,22.851692 39.757339,23.527096 
	C40.168831,24.649012 40.505337,25.453457 40.841843,26.257902 
	C40.378853,26.787836 39.915863,27.317772 39.206791,27.967648 
z"/>
<path fill="#50312D" opacity="1.000000" stroke="none" 
	d="
M41.196739,26.232544 
	C40.505337,25.453457 40.168831,24.649012 40.026505,23.296715 
	C41.307861,21.488411 42.395027,20.227957 43.564659,19.243820 
	C43.725170,19.695820 43.803211,19.871506 43.880707,20.464159 
	C44.034294,22.518072 44.188435,24.155016 43.998680,25.859230 
	C43.425186,25.969555 43.195580,26.012608 42.965977,26.055658 
	C42.494530,26.106167 42.023079,26.156675 41.196739,26.232544 
z"/>
<path fill="#46302B" opacity="1.000000" stroke="none" 
	d="
M43.146824,26.270161 
	C43.195580,26.012608 43.425186,25.969555 44.353004,25.865551 
	C46.022556,25.805244 46.993893,25.805889 47.965225,25.806534 
	C48.829308,26.059593 49.693394,26.312654 50.807167,26.796906 
	C51.056858,27.028097 51.015926,27.406345 51.011215,27.596132 
	C50.800873,27.787636 50.595238,27.789351 50.080833,27.813969 
	C49.772068,27.836874 49.403423,27.887630 49.219902,27.915405 
	C48.583130,27.922338 48.129875,27.901497 47.336990,27.853275 
	C46.486794,27.584902 45.976227,27.343906 45.172935,27.104010 
	C44.362694,26.898291 43.845184,26.691475 43.146824,26.270161 
z"/>
<path fill="#A47252" opacity="1.000000" stroke="none" 
	d="
M48.537743,60.010788 
	C48.845985,60.690662 48.932171,61.472733 49.013256,62.648396 
	C48.260204,63.034412 47.512253,63.026833 46.393501,62.972290 
	C46.022697,62.925323 46.053883,62.494720 46.180130,62.006485 
	C46.380966,61.331497 46.455563,61.144753 46.530163,60.958008 
	C47.125340,60.676331 47.720516,60.394657 48.537743,60.010788 
z"/>
<path fill="#332127" opacity="1.000000" stroke="none" 
	d="
M46.091686,60.844452 
	C46.455563,61.144753 46.380966,61.331497 46.176434,61.790649 
	C45.233776,62.312000 44.421062,62.560947 43.300629,62.900505 
	C42.697315,62.460232 42.401722,61.929356 42.086029,61.083145 
	C43.261692,60.755508 44.457451,60.743206 46.091686,60.844452 
z"/>
<path fill="#8B5F44" opacity="1.000000" stroke="none" 
	d="
M48.980923,63.384918 
	C49.739651,63.020584 50.503418,63.011711 51.649559,63.006935 
	C51.557468,63.906105 51.082996,64.801178 50.608521,65.696251 
	C50.067665,65.044289 49.526814,64.392334 48.980923,63.384918 
z"/>
<path fill="#B98964" opacity="1.000000" stroke="none" 
	d="
M33.141312,60.706211 
	C33.348141,61.287823 33.554974,61.869434 33.888268,62.734459 
	C33.569298,63.966412 33.123863,64.914955 32.344391,65.924622 
	C32.010349,65.985756 31.979616,65.987610 31.947823,65.668129 
	C31.893734,64.902878 31.871435,64.457100 31.871342,63.756126 
	C31.869621,63.331825 31.845699,63.162727 31.824074,62.588005 
	C31.823149,61.641529 31.819927,61.100681 32.145515,60.617626 
	C32.696651,60.685684 32.918980,60.695946 33.141312,60.706211 
z"/>
<path fill="#AE7E5C" opacity="1.000000" stroke="none" 
	d="
M41.059654,64.494080 
	C41.508415,64.100372 41.934052,63.998947 42.683334,63.841145 
	C42.563206,64.476257 42.119431,65.167740 41.339462,65.908981 
	C41.014347,65.567940 41.025436,65.177155 41.059654,64.494080 
z"/>
<path fill="#986B4B" opacity="1.000000" stroke="none" 
	d="
M20.363342,60.023483 
	C19.978157,58.979740 19.969217,57.954857 20.309114,56.487629 
	C21.398556,54.993725 22.139158,53.942169 22.864254,52.894855 
	C22.848747,52.899101 22.866678,52.864017 23.301338,52.905140 
	C25.179403,52.968422 26.622805,52.990582 28.294577,53.267670 
	C28.674974,54.420425 28.827002,55.318249 28.991024,56.578377 
	C29.001549,57.918907 29.000076,58.897133 28.992567,60.260788 
	C28.987381,61.415783 28.988234,62.185352 28.989086,62.954922 
	C28.989086,62.954922 28.491322,62.974869 28.242943,62.994476 
	C25.576239,62.023499 23.157913,61.032917 20.363342,60.023483 
z"/>
<path fill="#81563B" opacity="1.000000" stroke="none" 
	d="
M29.009075,63.319046 
	C28.988234,62.185352 28.987381,61.415783 29.326563,60.283539 
	C30.111893,59.947353 30.557190,59.973843 31.204096,60.015266 
	C31.405704,60.030197 31.806894,60.080444 31.807661,60.200325 
	C31.808428,60.320206 31.816704,60.559834 31.816704,60.559834 
	C31.819927,61.100681 31.823149,61.641529 31.722309,62.700470 
	C31.491066,63.532570 31.568029,63.796825 31.849136,64.011330 
	C31.871435,64.457100 31.893734,64.902878 31.942831,65.682465 
	C30.989443,65.238571 30.009253,64.460869 29.009075,63.319046 
z"/>
<path fill="#EDC096" opacity="1.000000" stroke="none" 
	d="
M25.818512,66.815948 
	C24.998468,66.870110 24.235355,66.715164 23.274849,66.341049 
	C23.793901,66.097275 24.510344,66.072678 25.580753,66.112793 
	C25.934719,66.177498 25.875446,66.606850 25.818512,66.815948 
z"/>
<path fill="#C3936F" opacity="1.000000" stroke="none" 
	d="
M22.400814,34.940849 
	C22.035740,34.179813 22.028322,33.461182 22.280849,32.355930 
	C22.719345,31.937819 22.897896,31.906334 23.440369,31.925243 
	C24.532652,32.064568 25.261017,32.153496 25.987858,32.440533 
	C25.986334,32.638638 26.051935,33.029388 26.026186,33.348099 
	C25.951725,34.089832 25.903013,34.512852 25.618998,34.969856 
	C25.383694,35.003841 24.918253,35.101067 24.918253,35.101067 
	C24.198326,35.061794 23.478401,35.022526 22.400814,34.940849 
z"/>
<path fill="#6E4832" opacity="1.000000" stroke="none" 
	d="
M22.831861,48.105202 
	C22.816540,47.925461 22.867321,47.744370 22.958637,47.284145 
	C23.778732,46.992176 24.558290,46.979340 25.728456,46.944233 
	C26.119062,46.921967 26.078758,46.969250 26.045992,47.292824 
	C26.003990,48.081539 25.994755,48.546680 25.669409,48.969696 
	C24.562765,48.618881 23.772232,48.310192 22.981699,48.001503 
	C22.981699,48.001507 22.897963,48.103848 22.831861,48.105202 
z"/>
<path fill="#C08D68" opacity="1.000000" stroke="none" 
	d="
M25.990063,38.270237 
	C26.275387,38.159279 26.567904,38.375404 26.992098,38.839157 
	C27.077810,39.492043 27.031843,39.897305 26.925943,40.603081 
	C26.576426,40.134834 26.286840,39.366077 25.990063,38.270237 
z"/>
<path fill="#A47252" opacity="1.000000" stroke="none" 
	d="
M24.950657,35.424515 
	C24.918253,35.101067 25.383694,35.003841 25.701035,35.221840 
	C26.079512,35.605488 26.140650,35.771130 26.201790,35.936775 
	C26.163866,36.396706 26.125944,36.856636 26.057625,37.661644 
	C25.679171,37.253807 25.331114,36.500885 24.950657,35.424515 
z"/>
<path fill="#020101" opacity="1.000000" stroke="none" 
	d="
M26.863541,28.043171 
	C26.905598,27.578526 26.947655,27.113880 26.960142,26.075172 
	C26.930573,25.501112 26.841227,25.046255 26.841227,25.046255 
	C26.873213,24.863438 26.905201,24.680618 26.928028,23.979134 
	C26.918863,23.460466 26.840403,22.967983 26.911896,22.647552 
	C27.018658,21.891184 27.053928,21.455248 27.317802,21.005184 
	C27.546408,20.991055 28.004307,21.013714 28.006157,21.267668 
	C28.011055,21.690901 28.014107,21.860182 28.023016,22.370682 
	C28.670202,23.476505 29.311533,24.241112 29.945225,25.248394 
	C29.937588,25.491070 29.934340,25.976648 29.709473,26.190842 
	C28.702595,27.572683 27.920582,28.740334 27.098888,29.666302 
	C27.059210,29.424620 26.895679,28.962887 26.919880,28.731831 
	C26.944078,28.500776 26.863541,28.043171 26.863541,28.043171 
z"/>
<path fill="#785138" opacity="1.000000" stroke="none" 
	d="
M26.895679,28.962887 
	C26.895679,28.962887 27.059210,29.424620 26.987854,29.729916 
	C26.916500,30.035212 26.703728,30.177441 26.569530,30.275639 
	C26.282200,30.541538 26.170988,30.733534 25.772009,30.965405 
	C24.653698,31.278940 23.865072,31.576897 23.076447,31.874851 
	C22.897896,31.906334 22.719345,31.937819 22.270054,31.995323 
	C22.003250,31.268517 22.007189,30.515688 21.985779,29.388245 
	C23.042110,29.007954 24.123791,29.002279 25.830547,28.997238 
	C26.455622,28.997873 26.895679,28.962887 26.895679,28.962887 
z"/>
<path fill="#D3A37C" opacity="1.000000" stroke="none" 
	d="
M22.473061,23.172981 
	C21.465696,22.710093 20.816622,22.205536 20.445629,21.518276 
	C22.137897,21.564779 23.552082,21.793982 24.979202,22.265623 
	C24.992140,22.508060 24.994326,22.993622 24.994326,22.993622 
	C24.273333,23.039518 23.552341,23.085415 22.473061,23.172981 
z"/>
<path fill="#B78562" opacity="1.000000" stroke="none" 
	d="
M25.239342,23.015354 
	C24.994326,22.993622 24.992140,22.508060 24.981346,21.972298 
	C24.959614,21.046114 24.948675,20.655695 25.254070,20.230267 
	C25.990601,20.149246 26.410799,20.103231 26.864902,20.305965 
	C26.962273,20.709579 27.025734,20.864445 27.089197,21.019312 
	C27.053928,21.455248 27.018658,21.891184 26.693657,22.675512 
	C26.403927,23.023905 25.971531,23.105515 25.971531,23.105515 
	C25.971531,23.105515 25.484358,23.037085 25.239342,23.015354 
z"/>
<path fill="#9D6F4E" opacity="1.000000" stroke="none" 
	d="
M26.087601,23.272079 
	C25.971531,23.105515 26.403927,23.023905 26.622166,22.995945 
	C26.840403,22.967983 26.918863,23.460466 26.874775,23.705879 
	C26.588516,23.820963 26.379511,23.650080 26.087601,23.272079 
z"/>
<path fill="#9D6F4E" opacity="1.000000" stroke="none" 
	d="
M26.732029,25.143917 
	C26.841227,25.046255 26.930573,25.501112 26.893847,25.729961 
	C26.553888,25.773510 26.475790,25.534433 26.732029,25.143917 
z"/>
<path fill="#9D6F4E" opacity="1.000000" stroke="none" 
	d="
M26.919880,28.731831 
	C26.895679,28.962887 26.455622,28.997873 26.235130,28.992794 
	C26.127193,28.717653 26.291159,28.483610 26.685038,28.164377 
	C26.863541,28.043171 26.944078,28.500776 26.919880,28.731831 
z"/>
<path fill="#578927" opacity="1.000000" stroke="none" 
	d="
M14.000696,12.372535 
	C15.067116,12.000549 16.133636,12.000743 17.850021,12.000604 
	C18.499887,12.000272 18.999754,12.000029 18.999754,12.000029 
	C18.999754,12.000029 19.044477,12.011678 19.046429,12.379560 
	C19.056938,13.470762 19.065495,14.194081 18.846249,15.146815 
	C19.062881,16.881451 19.507318,18.386671 19.987499,19.948574 
	C20.023243,20.005255 20.051609,20.136242 20.051609,20.136242 
	C19.885351,20.115267 19.719091,20.094290 18.952278,20.047926 
	C17.887232,20.045307 17.422741,20.068077 16.586929,20.063036 
	C15.470554,20.064587 14.725496,20.093946 13.980438,20.123308 
	C13.980438,20.123308 14.004639,19.988739 14.012743,19.919704 
	C14.014630,18.498846 14.008413,17.147024 14.000296,15.385273 
	C13.999196,14.231800 13.999996,13.488256 14.000696,12.372535 
z"/>
<path fill="#C59970" opacity="1.000000" stroke="none" 
	d="
M24.937737,20.265274 
	C24.948675,20.655695 24.959614,21.046114 24.968409,21.729860 
	C23.552082,21.793982 22.137897,21.564779 20.394135,21.197144 
	C20.064554,21.058708 20.040031,20.597439 20.045820,20.366840 
	C20.051609,20.136242 20.023243,20.005255 20.404320,19.989193 
	C22.169510,20.070515 23.553623,20.167894 24.937737,20.265274 
z"/>
<path fill="#70492F" opacity="1.000000" stroke="none" 
	d="
M16.958248,20.090847 
	C17.422741,20.068077 17.887232,20.045307 18.700928,20.045227 
	C19.033569,20.796049 19.017006,21.524185 18.994627,22.617317 
	C18.548416,23.001778 18.108019,23.021238 17.338217,23.011995 
	C17.008810,22.983292 16.830122,22.913601 16.785057,22.646702 
	C16.756651,21.991278 16.773308,21.602753 16.853559,20.936607 
	C16.930851,20.469608 16.944550,20.280228 16.958248,20.090847 
z"/>
<path fill="#9F654D" opacity="1.000000" stroke="none" 
	d="
M47.931107,25.516571 
	C46.993893,25.805889 46.022556,25.805244 44.696899,25.798279 
	C44.188435,24.155016 44.034294,22.518072 44.141014,20.566755 
	C44.864777,20.561142 45.327686,20.869902 45.988884,21.392097 
	C46.469646,21.875814 46.752117,22.146095 47.034584,22.416378 
	C47.322052,23.353123 47.609520,24.289865 47.931107,25.516571 
z"/>
<path fill="#C9907F" opacity="1.000000" stroke="none" 
	d="
M54.026352,19.098391 
	C54.075188,19.824142 54.124027,20.549894 54.207611,21.638214 
	C54.242355,22.000784 54.046936,21.984123 53.817551,21.968575 
	C53.588161,21.953024 53.324799,21.931307 53.239746,21.605276 
	C52.663361,20.848572 52.172024,20.417898 51.680683,19.987226 
	C50.692139,20.415113 49.703594,20.842999 48.336632,21.222282 
	C47.958218,21.173679 47.787502,20.970219 47.848541,20.649012 
	C47.921661,19.892397 47.933739,19.456991 48.163635,18.797752 
	C49.881069,18.407738 51.380684,18.241554 52.880299,18.075371 
	C52.880299,18.075371 53.201939,18.041973 53.450661,18.323326 
	C53.808369,18.769251 53.917362,18.933821 54.026352,19.098391 
z"/>
<path fill="#B97D62" opacity="1.000000" stroke="none" 
	d="
M53.799309,22.806883 
	C53.845081,23.274117 53.890858,23.741350 53.935928,24.558969 
	C53.613182,24.546640 53.291130,24.183926 53.139336,23.419937 
	C53.472828,22.948072 53.636066,22.877478 53.799309,22.806883 
z"/>
<path fill="#D3AFA3" opacity="1.000000" stroke="none" 
	d="
M53.820786,22.600964 
	C53.636066,22.877478 53.472828,22.948072 53.089951,23.172777 
	C52.567341,23.098894 52.264370,22.870899 52.255470,22.335222 
	C52.807957,21.995462 53.066380,21.963385 53.324799,21.931307 
	C53.324799,21.931307 53.588161,21.953024 53.719494,21.967041 
	C53.850826,21.981060 53.842266,22.395044 53.820786,22.600964 
z"/>
<path fill="#D8BCBA" opacity="1.000000" stroke="none" 
	d="
M53.239746,21.605276 
	C53.066380,21.963385 52.807957,21.995462 52.159706,22.066513 
	C51.749687,21.634768 51.729496,21.164047 51.694992,20.340275 
	C52.172024,20.417898 52.663361,20.848572 53.239746,21.605276 
z"/>
<path fill="#B97D62" opacity="1.000000" stroke="none" 
	d="
M47.229454,22.269291 
	C46.752117,22.146095 46.469646,21.875814 46.126419,21.288097 
	C46.065666,20.970659 46.341141,20.768908 46.576538,20.833683 
	C47.135460,20.944975 47.460648,20.968897 47.787502,20.970219 
	C47.787502,20.970219 47.958218,21.173679 48.014759,21.298233 
	C47.892971,21.690420 47.677315,21.923561 47.229454,22.269291 
z"/>
<path fill="#DEA48A" opacity="1.000000" stroke="none" 
	d="
M52.905373,17.933395 
	C51.380684,18.241554 49.881069,18.407738 47.856812,18.940392 
	C47.154373,19.446487 46.976578,19.586113 46.790115,19.214855 
	C46.851166,17.683796 46.920879,16.663622 47.194687,15.667831 
	C47.922760,15.749809 48.446743,15.807402 49.285156,16.047714 
	C50.739349,16.659279 51.879108,17.088125 53.018871,17.516970 
	C53.018871,17.516970 52.930443,17.791418 52.905373,17.933395 
z"/>
<path fill="#49332F" opacity="1.000000" stroke="none" 
	d="
M53.274376,17.275085 
	C51.879108,17.088125 50.739349,16.659279 49.305138,15.664908 
	C49.055595,14.587475 49.100494,14.075564 49.145397,13.563655 
	C49.864834,13.725237 50.584270,13.886819 51.670364,14.100044 
	C52.506420,14.418852 52.975822,14.686016 53.722713,14.983360 
	C53.843430,15.686762 53.686653,16.359982 53.274376,17.275085 
z"/>
<path fill="#607537" opacity="1.000000" stroke="none" 
	d="
M54.214020,19.137716 
	C53.917362,18.933821 53.808369,18.769251 53.612335,18.321526 
	C53.879635,18.249039 54.233978,18.459711 54.679108,18.977299 
	C54.769894,19.284214 54.401688,19.177042 54.214020,19.137716 
z"/>
<path fill="#E6B88E" opacity="1.000000" stroke="none" 
	d="
M16.789967,21.214230 
	C16.773308,21.602753 16.756651,21.991278 16.691498,22.667763 
	C15.987083,22.948301 15.331162,22.940876 14.357046,22.849236 
	C14.034848,22.390024 14.030844,22.015028 14.038173,21.358288 
	C14.049506,21.076540 14.019165,20.975885 14.341867,20.964653 
	C15.373036,21.040358 16.081501,21.127293 16.789967,21.214230 
z"/>
<path fill="#987754" opacity="1.000000" stroke="none" 
	d="
M16.853559,20.936607 
	C16.081501,21.127293 15.373036,21.040358 14.307173,20.925165 
	C13.949775,20.896910 13.972491,20.509331 13.976465,20.316319 
	C14.725496,20.093946 15.470554,20.064587 16.586929,20.063036 
	C16.944550,20.280228 16.930851,20.469608 16.853559,20.936607 
z"/>
<path fill="#46302B" opacity="1.000000" stroke="none" 
	d="
M48.978188,13.408637 
	C49.100494,14.075564 49.055595,14.587475 48.990707,15.482189 
	C48.446743,15.807402 47.922760,15.749809 46.984398,15.496692 
	C45.762295,15.619540 44.954578,15.937914 44.111710,15.874357 
	C44.386955,14.319223 44.697350,13.146021 45.328987,11.976290 
	C46.075695,12.024087 46.501163,12.068413 46.926636,12.112739 
	C47.058926,12.402419 47.271133,12.610564 47.786415,12.770335 
	C48.279549,12.948478 48.546688,13.098519 48.978188,13.408637 
z"/>
<path fill="#558525" opacity="1.000000" stroke="none" 
	d="
M46.933685,11.743668 
	C46.501163,12.068413 46.075695,12.024087 45.194592,11.784206 
	C44.519855,11.362692 44.277546,11.165208 44.012024,10.996198 
	C44.012791,10.555346 44.013561,10.114492 44.028923,9.343562 
	C45.009258,9.800522 45.974995,10.587560 46.933685,11.743668 
z"/>
<path fill="#342427" opacity="1.000000" stroke="none" 
	d="
M43.722786,11.125217 
	C44.277546,11.165208 44.519855,11.362692 44.873352,11.780735 
	C44.697350,13.146021 44.386955,14.319223 43.995674,16.206316 
	C43.770592,17.602640 43.626392,18.285072 43.482193,18.967506 
	C42.395027,20.227957 41.307861,21.488411 39.951523,22.979244 
	C38.336525,22.851692 36.990696,22.493759 34.957642,21.917713 
	C34.039837,21.786991 33.809254,21.874382 33.438206,21.869766 
	C33.297737,21.777761 33.031055,21.981876 32.969223,21.868073 
	C32.907394,21.754271 32.744961,21.552498 32.773365,21.471706 
	C32.801769,21.390915 32.885067,21.236553 33.258835,21.190880 
	C34.747379,20.736942 35.862148,20.328678 36.990501,19.696911 
	C37.004082,19.473406 36.906502,19.036337 36.950352,18.632095 
	C36.951233,17.146954 36.908264,16.066053 36.918056,14.615871 
	C36.988117,13.501377 37.005413,12.756164 37.013432,12.047028 
	C37.004154,12.083106 37.069839,12.118265 37.069839,12.118265 
	C38.126602,12.060014 39.183369,12.001761 40.631321,11.872019 
	C41.826187,11.618432 42.629868,11.436335 43.722786,11.125217 
z"/>
<path fill="#6A9F34" opacity="1.000000" stroke="none" 
	d="
M35.977779,12.011015 
	C35.981026,11.559905 35.984272,11.108796 35.986244,10.318913 
	C36.386486,10.523217 36.787994,11.066298 37.129673,11.863821 
	C37.069839,12.118265 37.004154,12.083106 36.765587,12.042044 
	C36.527020,12.000980 36.032093,11.994534 36.019264,11.998753 
	C36.006439,12.002971 35.977779,12.011015 35.977779,12.011015 
z"/>
<path fill="#3D7318" opacity="1.000000" stroke="none" 
	d="
M19.074051,14.917399 
	C19.065495,14.194081 19.056938,13.470762 19.068352,12.386869 
	C20.519085,11.392950 21.949850,10.759604 23.718437,10.037739 
	C24.302368,10.452584 24.548475,10.955951 24.901093,12.096599 
	C25.004562,13.495220 25.001526,14.256561 24.573799,15.009378 
	C22.457424,14.973036 20.765738,14.945218 19.074051,14.917399 
z"/>
<path fill="#4A7E1F" opacity="1.000000" stroke="none" 
	d="
M24.998489,15.017901 
	C25.001526,14.256561 25.004562,13.495220 25.014339,12.352594 
	C26.001396,12.732307 26.981716,13.493305 27.978161,14.628835 
	C27.994287,15.003366 27.969463,14.996092 27.707378,15.058120 
	C26.629690,15.086065 25.814091,15.051984 24.998489,15.017901 
z"/>
<path fill="#4D8222" opacity="1.000000" stroke="none" 
	d="
M30.014812,14.950453 
	C30.768335,13.976839 31.521858,13.003225 32.632721,12.007080 
	C32.990067,11.984549 32.998634,11.998217 32.999481,12.378771 
	C33.004120,13.515184 33.007904,14.271043 33.006355,15.016808 
	C33.001022,15.006714 32.992512,15.000157 32.610931,15.001371 
	C31.465275,15.036748 30.701193,15.070909 29.950098,15.063179 
	C29.963083,15.021290 30.014811,14.950452 30.014812,14.950453 
z"/>
<path fill="#1E4E03" opacity="1.000000" stroke="none" 
	d="
M27.995708,14.988363 
	C28.445326,14.976012 28.893520,14.978663 29.678265,14.965883 
	C30.014811,14.950452 29.963083,15.021290 29.970478,15.404457 
	C29.960171,16.471478 29.942465,17.155331 29.589687,17.803307 
	C28.826231,16.843651 28.397846,15.919871 27.969463,14.996092 
	C27.969463,14.996092 27.994287,15.003366 27.995708,14.988363 
z"/>
<path fill="#5E8E2D" opacity="1.000000" stroke="none" 
	d="
M19.000175,11.625021 
	C18.999754,12.000029 18.499887,12.000272 18.249966,12.000219 
	C18.000031,11.250158 18.000019,10.500149 17.999966,9.375349 
	C18.166647,9.000359 18.333368,9.000158 18.750307,8.999949 
	C19.000547,9.749966 19.000574,10.499990 19.000175,11.625021 
z"/>
<path fill="#45751A" opacity="1.000000" stroke="none" 
	d="
M33.011692,15.026902 
	C33.007904,14.271043 33.004120,13.515184 33.002609,12.382967 
	C33.749592,12.004606 34.494293,12.002604 35.608387,12.005808 
	C35.977779,12.011015 36.006439,12.002971 36.005096,12.374039 
	C35.993633,13.494859 35.983505,14.244611 35.602821,14.995213 
	C34.492073,15.006342 33.751884,15.016622 33.011692,15.026902 
z"/>
<path fill="#AF7F5B" opacity="1.000000" stroke="none" 
	d="
M22.879763,52.890610 
	C22.139158,53.942169 21.398556,54.993725 20.281698,56.104366 
	C19.905445,56.163448 19.912348,56.060246 19.953159,55.644554 
	C19.984108,54.970589 19.974243,54.712315 19.964378,54.454037 
	C19.964378,54.454037 19.695950,54.529461 19.695950,54.529461 
	C19.695950,54.529461 19.465893,54.371563 19.296917,54.009132 
	C19.046665,53.479897 18.965389,53.313087 18.884113,53.146282 
	C19.058737,53.118610 19.233362,53.090935 20.041306,53.061031 
	C21.409672,53.002743 22.144718,52.946674 22.879763,52.890610 
z"/>
<path fill="#CB9A71" opacity="1.000000" stroke="none" 
	d="
M18.600185,53.126801 
	C18.965389,53.313087 19.046665,53.479897 19.294128,53.869713 
	C18.797075,53.956642 18.133835,53.820564 17.325100,53.365002 
	C17.558489,53.066120 17.937372,53.086720 18.600185,53.126801 
z"/>
<path fill="#CB9A71" opacity="1.000000" stroke="none" 
	d="
M19.725903,54.594269 
	C19.974243,54.712315 19.984108,54.970589 19.996651,55.616570 
	C19.828697,55.581017 19.658064,55.157761 19.725903,54.594269 
z"/>
<path fill="#EDC096" opacity="1.000000" stroke="none" 
	d="
M22.864254,52.894855 
	C22.144718,52.946674 21.409672,53.002743 20.305042,53.033150 
	C19.961107,52.270115 19.986755,51.532738 20.086590,50.434105 
	C20.819485,50.102268 21.478191,50.131687 22.491047,50.155571 
	C22.845194,50.150028 22.864517,50.196442 22.852402,50.530479 
	C22.849085,51.531013 22.857882,52.197517 22.866678,52.864017 
	C22.866678,52.864017 22.848747,52.899101 22.864254,52.894855 
z"/>
<path fill="#603A26" opacity="1.000000" stroke="none" 
	d="
M22.929762,48.354485 
	C23.772232,48.310192 24.562765,48.618881 25.667355,49.184189 
	C25.981413,49.440811 25.931789,49.867310 25.548687,49.912773 
	C24.398563,50.037636 23.631540,50.117039 22.864517,50.196442 
	C22.864517,50.196442 22.845194,50.150028 22.821537,50.140900 
	C22.824528,49.657001 22.851175,49.182232 22.929762,48.354485 
z"/>
<path fill="#B78562" opacity="1.000000" stroke="none" 
	d="
M22.852402,50.530479 
	C23.631540,50.117039 24.398563,50.037636 25.790604,49.958389 
	C26.415623,49.958549 26.898321,50.050983 26.898321,50.050983 
	C27.063883,50.639084 27.229445,51.227188 27.710609,52.187260 
	C28.026213,52.559231 28.066208,53.012745 28.066208,53.012741 
	C26.622805,52.990582 25.179403,52.968422 23.301338,52.905140 
	C22.857882,52.197517 22.849085,51.531013 22.852402,50.530479 
z"/>
<path fill="#70492F" opacity="1.000000" stroke="none" 
	d="
M28.294577,53.267670 
	C28.066208,53.012745 28.026213,52.559231 27.980865,52.336205 
	C28.714077,52.103703 29.492634,52.094234 30.657736,52.141556 
	C31.025793,53.261597 31.007305,54.324844 30.649399,55.761147 
	C29.866331,56.161495 29.422682,56.188786 28.979031,56.216076 
	C28.827002,55.318249 28.674974,54.420425 28.294577,53.267670 
z"/>
<path fill="#81563B" opacity="1.000000" stroke="none" 
	d="
M26.928127,49.698757 
	C26.898321,50.050983 26.415623,49.958549 26.173706,49.912930 
	C25.931789,49.867310 25.981413,49.440811 25.983467,49.226318 
	C25.994755,48.546680 26.003990,48.081539 26.029198,47.267189 
	C26.349426,47.727497 26.653681,48.537014 26.928127,49.698757 
z"/>
<path fill="#58331E" opacity="1.000000" stroke="none" 
	d="
M31.234470,57.167107 
	C32.021629,57.290722 32.808784,57.414341 33.797523,57.768784 
	C34.009701,58.179008 34.020294,58.358406 33.802349,58.869839 
	C33.573814,59.201874 33.104477,59.283382 32.869686,59.101257 
	C32.174763,58.558044 31.714630,58.196960 31.256632,57.668465 
	C31.258766,57.501060 31.234470,57.167103 31.234470,57.167107 
z"/>
<path fill="#926547" opacity="1.000000" stroke="none" 
	d="
M32.145515,60.617626 
	C31.816704,60.559834 31.808428,60.320206 32.032856,60.151752 
	C32.257286,59.983299 32.709297,59.919338 33.007675,59.957966 
	C33.504921,60.022797 33.703781,60.048996 33.902641,60.075199 
	C33.759869,60.249973 33.600513,60.408009 33.282940,60.627758 
	C32.918980,60.695946 32.696651,60.685684 32.145515,60.617626 
z"/>
<path fill="#A47252" opacity="1.000000" stroke="none" 
	d="
M33.948208,59.827316 
	C33.703781,60.048996 33.504921,60.022797 33.123432,59.808640 
	C32.940807,59.620682 33.104477,59.283382 33.104477,59.283382 
	C33.104477,59.283382 33.573814,59.201874 33.803707,59.139400 
	C34.020325,59.244427 34.007050,59.411930 33.948208,59.827316 
z"/>
<path fill="#A47252" opacity="1.000000" stroke="none" 
	d="
M31.146006,56.928177 
	C31.234470,57.167103 31.258766,57.501060 31.174187,58.025017 
	C31.060570,59.032764 31.031528,59.516548 31.002487,60.000336 
	C30.557190,59.973843 30.111893,59.947353 29.332600,59.898109 
	C29.000076,58.897133 29.001549,57.918907 28.991026,56.578377 
	C29.422682,56.188786 29.866331,56.161495 30.642284,56.160355 
	C31.002237,56.354092 31.029890,56.521671 31.146006,56.928177 
z"/>
<path fill="#5B3A34" opacity="1.000000" stroke="none" 
	d="
M27.027534,29.971598 
	C27.920582,28.740334 28.702595,27.572683 29.950087,26.424206 
	C30.620577,27.302832 30.825588,28.162281 31.030598,29.021732 
	C31.023222,29.460157 31.015846,29.898582 31.015137,30.665749 
	C29.629557,32.610615 28.237309,34.226738 26.523426,35.889820 
	C26.140650,35.771130 26.079512,35.605488 25.936337,35.187859 
	C25.903013,34.512852 25.951725,34.089832 26.224979,33.116711 
	C26.534258,31.770220 26.618992,30.973829 26.703728,30.177441 
	C26.703728,30.177441 26.916500,30.035212 27.027534,29.971598 
z"/>
<path fill="#2E4246" opacity="1.000000" stroke="none" 
	d="
M31.278118,28.817581 
	C30.825588,28.162281 30.620577,27.302832 30.174953,26.210014 
	C29.934340,25.976648 29.937588,25.491070 30.163399,25.130394 
	C30.658775,24.569620 30.875027,24.322811 31.250080,24.181402 
	C31.894650,24.876665 32.327099,25.419815 32.936401,26.006872 
	C33.113255,26.050777 33.476700,26.077703 33.476700,26.077703 
	C33.607559,26.209953 33.738419,26.342201 34.003639,26.719059 
	C33.267216,27.513586 32.396427,28.063507 31.278118,28.817581 
z"/>
<path fill="#2C2E33" opacity="1.000000" stroke="none" 
	d="
M32.759552,25.962967 
	C32.327099,25.419815 31.894650,24.876665 31.352345,23.919458 
	C31.491438,23.001816 31.740379,22.498230 32.189007,21.902523 
	C32.388691,21.810400 32.744961,21.552498 32.744961,21.552498 
	C32.744961,21.552498 32.907394,21.754271 32.884331,22.215172 
	C32.925217,23.144360 32.989170,23.612646 33.053120,24.080935 
	C33.053120,24.080935 33.167202,24.443930 33.036983,24.912415 
	C32.857697,25.574923 32.808624,25.768946 32.759552,25.962967 
z"/>
<path fill="#2E5B5E" opacity="1.000000" stroke="none" 
	d="
M33.153862,23.730053 
	C32.989170,23.612646 32.925217,23.144360 32.946159,22.328974 
	C33.031055,21.981876 33.297737,21.777761 33.444397,21.886015 
	C33.591053,21.994268 33.565693,21.957838 33.565689,21.957838 
	C33.461994,22.431616 33.358299,22.905394 33.153862,23.730053 
z"/>
<path fill="#2E5B5E" opacity="1.000000" stroke="none" 
	d="
M32.936401,26.006872 
	C32.808624,25.768946 32.857697,25.574923 33.016884,25.101603 
	C33.386089,25.026653 33.533443,25.292839 33.522888,25.849281 
	C33.476700,26.077703 33.113255,26.050777 32.936401,26.006872 
z"/>
<path fill="#2E8385" opacity="1.000000" stroke="none" 
	d="
M33.791130,22.063160 
	C33.565693,21.957838 33.591053,21.994268 33.584862,21.978020 
	C33.809254,21.874382 34.039837,21.786991 34.616253,21.830408 
	C34.676983,22.167246 34.361809,22.236334 33.791130,22.063160 
z"/>
<path fill="#B97D62" opacity="1.000000" stroke="none" 
	d="
M43.564659,19.243820 
	C43.626392,18.285072 43.770592,17.602640 44.030827,16.588245 
	C44.954578,15.937914 45.762295,15.619540 46.780304,15.472307 
	C46.920879,16.663622 46.851166,17.683796 46.723125,19.329983 
	C46.482586,20.200737 46.374699,20.471706 46.341141,20.768908 
	C46.341141,20.768908 46.065666,20.970659 45.928131,21.074661 
	C45.327686,20.869902 44.864777,20.561142 44.141563,20.149786 
	C43.803211,19.871506 43.725170,19.695820 43.564659,19.243820 
z"/>
<path fill="#926547" opacity="1.000000" stroke="none" 
	d="
M31.871342,63.756126 
	C31.568029,63.796825 31.491066,63.532570 31.720011,63.106098 
	C31.845699,63.162727 31.869621,63.331825 31.871342,63.756126 
z"/>
<path fill="#83583E" opacity="1.000000" stroke="none" 
	d="
M31.204096,60.015266 
	C31.031528,59.516548 31.060570,59.032764 31.172054,58.192425 
	C31.714630,58.196960 32.174763,58.558044 32.869686,59.101257 
	C33.104477,59.283382 32.940807,59.620682 32.825050,59.770012 
	C32.709297,59.919338 32.257286,59.983299 32.032089,60.031872 
	C31.806894,60.080444 31.405704,60.030197 31.204096,60.015266 
z"/>
<path fill="#6B432B" opacity="1.000000" stroke="none" 
	d="
M23.440369,31.925245 
	C23.865072,31.576897 24.653698,31.278940 25.758858,31.290123 
	C26.046722,31.813650 26.018051,32.028038 25.989380,32.242428 
	C25.261017,32.153496 24.532652,32.064568 23.440369,31.925245 
z"/>
<path fill="#9D6F4E" opacity="1.000000" stroke="none" 
	d="
M25.987858,32.440533 
	C26.018051,32.028038 26.046722,31.813650 26.088547,31.274544 
	C26.170988,30.733534 26.282200,30.541538 26.569530,30.275639 
	C26.618992,30.973829 26.534258,31.770220 26.250729,32.797997 
	C26.051935,33.029388 25.986334,32.638638 25.987858,32.440533 
z"/>
<path fill="#1C1D1B" opacity="1.000000" stroke="none" 
	d="
M31.989323,21.994644 
	C31.740379,22.498230 31.491438,23.001816 31.140228,23.767345 
	C30.875027,24.322811 30.658775,24.569620 30.171036,24.887718 
	C29.311533,24.241112 28.670202,23.476505 28.419807,22.358131 
	C29.870270,22.001123 30.929796,21.997883 31.989323,21.994644 
z"/>
<path fill="#03010E" opacity="1.000000" stroke="none" 
	d="
M32.189007,21.902521 
	C30.929796,21.997883 29.870270,22.001123 28.413952,22.016914 
	C28.014107,21.860182 28.011055,21.690901 28.027985,21.076439 
	C28.047962,20.631254 28.106237,20.251339 28.486792,20.242798 
	C29.883368,20.270769 30.899391,20.307283 32.040390,20.486845 
	C32.364006,20.788820 32.582371,20.913078 32.822754,21.064964 
	C32.825050,21.127264 32.885067,21.236553 32.885067,21.236553 
	C32.885067,21.236553 32.801769,21.390915 32.773365,21.471706 
	C32.744961,21.552498 32.388691,21.810400 32.189007,21.902521 
z"/>
<path fill="#243B0E" opacity="1.000000" stroke="none" 
	d="
M28.106237,20.251339 
	C28.106237,20.251339 28.047962,20.631254 28.026134,20.822483 
	C28.004307,21.013714 27.546408,20.991055 27.317802,21.005184 
	C27.025734,20.864445 26.962273,20.709579 26.922539,20.332510 
	C26.946270,20.110306 27.041941,20.027670 27.315514,20.047039 
	C27.761467,20.128054 27.933851,20.189695 28.106237,20.251339 
z"/>
<path fill="#5E8E2D" opacity="1.000000" stroke="none" 
	d="
M27.707378,15.058120 
	C28.397846,15.919871 28.826231,16.843651 29.856934,17.858021 
	C30.638792,17.973513 30.818333,17.998409 30.761841,18.249287 
	C29.364521,18.992735 28.203230,19.510202 27.041941,20.027668 
	C27.041941,20.027670 26.946270,20.110306 26.888634,20.083763 
	C26.410799,20.103231 25.990601,20.149246 25.254070,20.230267 
	C23.553623,20.167894 22.169510,20.070515 20.368576,19.932512 
	C19.507318,18.386671 19.062881,16.881451 18.846249,15.146815 
	C20.765738,14.945218 22.457424,14.973036 24.573799,15.009378 
	C25.814091,15.051984 26.629690,15.086065 27.707378,15.058120 
z"/>
<path fill="#A37563" opacity="1.000000" stroke="none" 
	d="
M46.576538,20.833683 
	C46.374699,20.471706 46.482586,20.200737 46.731796,19.840870 
	C46.976578,19.586113 47.154373,19.446487 47.638992,19.164223 
	C47.933739,19.456991 47.921661,19.892397 47.848541,20.649012 
	C47.460648,20.968897 47.135460,20.944975 46.576538,20.833683 
z"/>
<path fill="#6CA338" opacity="1.000000" stroke="none" 
	d="
M33.006355,15.016808 
	C33.751884,15.016622 34.492073,15.006342 35.826172,14.995985 
	C36.420078,14.995908 36.865299,14.985151 36.865295,14.985151 
	C36.908264,16.066053 36.951233,17.146954 36.568329,18.608204 
	C35.120731,19.032448 34.099010,19.076347 33.046967,18.824793 
	C33.000877,18.332623 32.985111,18.135902 32.986141,17.572039 
	C32.999462,16.469980 32.995987,15.735069 32.992516,15.000157 
	C32.992512,15.000157 33.001022,15.006714 33.006355,15.016808 
z"/>
<path fill="#8ED04B" opacity="1.000000" stroke="none" 
	d="
M33.077290,19.120245 
	C34.099010,19.076347 35.120731,19.032448 36.524475,19.012444 
	C36.906502,19.036337 37.004082,19.473406 36.592796,19.730808 
	C35.123878,19.909521 34.066242,19.830830 33.028469,19.594484 
	C33.048328,19.436831 33.077290,19.120245 33.077290,19.120245 
z"/>
<path fill="#344C1B" opacity="1.000000" stroke="none" 
	d="
M33.008610,19.752138 
	C34.066242,19.830830 35.123878,19.909521 36.579216,19.954313 
	C35.862148,20.328678 34.747379,20.736942 33.258835,21.190880 
	C32.885067,21.236553 32.825050,21.127264 32.885773,20.871521 
	C32.946491,20.615780 33.027817,20.217653 33.031742,20.100914 
	C33.035667,19.984175 33.008610,19.752138 33.008610,19.752138 
z"/>
<path fill="#77AE41" opacity="1.000000" stroke="none" 
	d="
M36.918060,14.615871 
	C36.865299,14.985151 36.420078,14.995908 36.196732,14.995135 
	C35.983505,14.244611 35.993633,13.494859 36.017925,12.369821 
	C36.032093,11.994534 36.527020,12.000980 36.774864,12.005965 
	C37.005413,12.756164 36.988117,13.501377 36.918060,14.615871 
z"/>
<path fill="#32660E" opacity="1.000000" stroke="none" 
	d="
M32.610935,15.001371 
	C32.995987,15.735069 32.999462,16.469980 32.658302,17.597363 
	C31.875071,18.000990 31.436472,18.012146 30.997871,18.023304 
	C30.818333,17.998409 30.638792,17.973513 30.192005,17.893898 
	C29.942465,17.155331 29.960171,16.471478 29.957493,15.446346 
	C30.701193,15.070909 31.465275,15.036748 32.610935,15.001371 
z"/>
<path fill="#639D2D" opacity="1.000000" stroke="none" 
	d="
M30.761841,18.249287 
	C31.436472,18.012146 31.875071,18.000990 32.641510,17.964508 
	C32.985111,18.135902 33.000877,18.332623 33.046967,18.824793 
	C33.077290,19.120245 33.048328,19.436831 33.028469,19.594484 
	C33.008610,19.752138 33.035667,19.984175 32.746872,20.073017 
	C32.277195,20.222506 32.096306,20.283152 31.915413,20.343798 
	C30.899391,20.307283 29.883368,20.270769 28.486792,20.242798 
	C27.933851,20.189695 27.761467,20.128054 27.315514,20.047039 
	C28.203230,19.510202 29.364521,18.992735 30.761841,18.249287 
z"/>
<path fill="#243B0E" opacity="1.000000" stroke="none" 
	d="
M32.040390,20.486845 
	C32.096306,20.283152 32.277195,20.222506 32.742950,20.189756 
	C33.027817,20.217653 32.946491,20.615780 32.883476,20.809221 
	C32.582371,20.913078 32.364006,20.788820 32.040390,20.486845 
z"/>
</svg>